<?xml version="1.0" encoding="UTF-8" standalone="no"?>
<!DOCTYPE svg PUBLIC "-//W3C//DTD SVG 1.1//EN" "http://www.w3.org/Graphics/SVG/1.1/DTD/svg11.dtd">
<svg width="100%" height="100%" viewBox="0 0 960 720" version="1.1" xmlns="http://www.w3.org/2000/svg" xmlns:xlink="http://www.w3.org/1999/xlink" xml:space="preserve" xmlns:serif="http://www.serif.com/" style="fill-rule:evenodd;clip-rule:evenodd;stroke-linejoin:round;stroke-miterlimit:10;">
    <g>
        <rect x="0" y="0" width="960" height="720" style="fill:white;"/>
        <rect x="353.087" y="129.489" width="253.827" height="55.276" style="fill:rgb(0,138,188);"/>
        <path d="M374.867,169.21L374.867,146.303L383.508,146.303C385.029,146.303 386.19,146.376 386.992,146.522C388.117,146.71 389.06,147.069 389.82,147.6C390.581,148.121 391.19,148.855 391.648,149.803C392.117,150.751 392.352,151.793 392.352,152.928C392.352,154.876 391.732,156.527 390.492,157.881C389.253,159.225 387.013,159.897 383.773,159.897L377.898,159.897L377.898,169.21L374.867,169.21ZM377.898,157.194L383.82,157.194C385.779,157.194 387.169,156.829 387.992,156.1C388.815,155.371 389.227,154.345 389.227,153.022C389.227,152.064 388.982,151.246 388.492,150.569C388.013,149.881 387.378,149.428 386.586,149.21C386.076,149.074 385.133,149.006 383.758,149.006L377.898,149.006L377.898,157.194ZM395.82,169.21L395.82,152.616L398.352,152.616L398.352,155.131C398.997,153.954 399.591,153.178 400.133,152.803C400.685,152.428 401.289,152.241 401.945,152.241C402.893,152.241 403.857,152.543 404.836,153.147L403.867,155.756C403.18,155.35 402.492,155.147 401.805,155.147C401.19,155.147 400.638,155.335 400.148,155.71C399.659,156.074 399.31,156.585 399.102,157.241C398.789,158.241 398.633,159.335 398.633,160.522L398.633,169.21L395.82,169.21ZM417.867,163.866L420.773,164.225C420.315,165.923 419.466,167.241 418.227,168.178C416.987,169.116 415.404,169.585 413.477,169.585C411.049,169.585 409.122,168.84 407.695,167.35C406.279,165.85 405.57,163.751 405.57,161.053C405.57,158.262 406.289,156.095 407.727,154.553C409.164,153.012 411.029,152.241 413.32,152.241C415.539,152.241 417.352,152.996 418.758,154.506C420.164,156.017 420.867,158.142 420.867,160.881C420.867,161.048 420.862,161.298 420.852,161.631L408.477,161.631C408.581,163.454 409.096,164.85 410.023,165.819C410.951,166.788 412.107,167.272 413.492,167.272C414.523,167.272 415.404,167.001 416.133,166.46C416.862,165.918 417.44,165.053 417.867,163.866ZM408.633,159.319L417.898,159.319C417.773,157.923 417.419,156.876 416.836,156.178C415.94,155.095 414.779,154.553 413.352,154.553C412.06,154.553 410.971,154.986 410.086,155.85C409.211,156.715 408.727,157.871 408.633,159.319ZM423.211,162.335L423.211,159.506L431.852,159.506L431.852,162.335L423.211,162.335ZM434.961,175.569L434.961,152.616L437.523,152.616L437.523,154.772C438.128,153.928 438.81,153.298 439.57,152.881C440.331,152.454 441.253,152.241 442.336,152.241C443.753,152.241 445.003,152.605 446.086,153.335C447.169,154.064 447.987,155.095 448.539,156.428C449.091,157.751 449.367,159.204 449.367,160.788C449.367,162.486 449.06,164.017 448.445,165.381C447.841,166.736 446.956,167.777 445.789,168.506C444.633,169.225 443.414,169.585 442.133,169.585C441.195,169.585 440.352,169.387 439.602,168.991C438.862,168.595 438.253,168.095 437.773,167.491L437.773,175.569L434.961,175.569ZM437.508,161.006C437.508,163.142 437.94,164.72 438.805,165.741C439.669,166.762 440.716,167.272 441.945,167.272C443.195,167.272 444.263,166.746 445.148,165.694C446.044,164.631 446.492,162.991 446.492,160.772C446.492,158.657 446.055,157.074 445.18,156.022C444.315,154.97 443.279,154.444 442.07,154.444C440.872,154.444 439.81,155.006 438.883,156.131C437.966,157.246 437.508,158.871 437.508,161.006ZM452.727,169.21L452.727,152.616L455.258,152.616L455.258,155.131C455.904,153.954 456.497,153.178 457.039,152.803C457.591,152.428 458.195,152.241 458.852,152.241C459.799,152.241 460.763,152.543 461.742,153.147L460.773,155.756C460.086,155.35 459.398,155.147 458.711,155.147C458.096,155.147 457.544,155.335 457.055,155.71C456.565,156.074 456.216,156.585 456.008,157.241C455.695,158.241 455.539,159.335 455.539,160.522L455.539,169.21L452.727,169.21ZM462.367,160.913C462.367,157.84 463.221,155.564 464.93,154.085C466.357,152.855 468.096,152.241 470.148,152.241C472.43,152.241 474.294,152.991 475.742,154.491C477.19,155.98 477.914,158.043 477.914,160.678C477.914,162.814 477.591,164.496 476.945,165.725C476.31,166.944 475.378,167.892 474.148,168.569C472.93,169.246 471.596,169.585 470.148,169.585C467.826,169.585 465.945,168.84 464.508,167.35C463.081,165.861 462.367,163.715 462.367,160.913ZM465.258,160.913C465.258,163.038 465.721,164.631 466.648,165.694C467.576,166.746 468.742,167.272 470.148,167.272C471.544,167.272 472.706,166.741 473.633,165.678C474.56,164.616 475.023,162.996 475.023,160.819C475.023,158.767 474.555,157.215 473.617,156.163C472.69,155.1 471.534,154.569 470.148,154.569C468.742,154.569 467.576,155.095 466.648,156.147C465.721,157.199 465.258,158.788 465.258,160.913ZM492.039,163.131L494.805,163.491C494.503,165.397 493.727,166.892 492.477,167.975C491.237,169.048 489.711,169.585 487.898,169.585C485.628,169.585 483.799,168.845 482.414,167.366C481.039,165.876 480.352,163.746 480.352,160.975C480.352,159.183 480.648,157.616 481.242,156.272C481.836,154.928 482.737,153.923 483.945,153.256C485.164,152.579 486.487,152.241 487.914,152.241C489.716,152.241 491.19,152.699 492.336,153.616C493.482,154.522 494.216,155.814 494.539,157.491L491.805,157.913C491.544,156.798 491.081,155.96 490.414,155.397C489.758,154.835 488.961,154.553 488.023,154.553C486.607,154.553 485.456,155.064 484.57,156.085C483.685,157.095 483.242,158.699 483.242,160.897C483.242,163.126 483.669,164.746 484.523,165.756C485.378,166.767 486.492,167.272 487.867,167.272C488.971,167.272 489.893,166.933 490.633,166.256C491.372,165.579 491.841,164.538 492.039,163.131ZM508.57,163.866L511.477,164.225C511.018,165.923 510.169,167.241 508.93,168.178C507.69,169.116 506.107,169.585 504.18,169.585C501.753,169.585 499.826,168.84 498.398,167.35C496.982,165.85 496.273,163.751 496.273,161.053C496.273,158.262 496.992,156.095 498.43,154.553C499.867,153.012 501.732,152.241 504.023,152.241C506.242,152.241 508.055,152.996 509.461,154.506C510.867,156.017 511.57,158.142 511.57,160.881C511.57,161.048 511.565,161.298 511.555,161.631L499.18,161.631C499.284,163.454 499.799,164.85 500.727,165.819C501.654,166.788 502.81,167.272 504.195,167.272C505.227,167.272 506.107,167.001 506.836,166.46C507.565,165.918 508.143,165.053 508.57,163.866ZM499.336,159.319L508.602,159.319C508.477,157.923 508.122,156.876 507.539,156.178C506.643,155.095 505.482,154.553 504.055,154.553C502.763,154.553 501.674,154.986 500.789,155.85C499.914,156.715 499.43,157.871 499.336,159.319ZM513.883,164.256L516.664,163.819C516.82,164.933 517.253,165.788 517.961,166.381C518.68,166.975 519.68,167.272 520.961,167.272C522.253,167.272 523.211,167.012 523.836,166.491C524.461,165.96 524.773,165.34 524.773,164.631C524.773,163.996 524.497,163.496 523.945,163.131C523.56,162.881 522.602,162.564 521.07,162.178C519.008,161.657 517.576,161.21 516.773,160.835C515.982,160.449 515.378,159.923 514.961,159.256C514.555,158.579 514.352,157.835 514.352,157.022C514.352,156.282 514.518,155.6 514.852,154.975C515.195,154.34 515.659,153.814 516.242,153.397C516.68,153.074 517.273,152.803 518.023,152.585C518.784,152.355 519.596,152.241 520.461,152.241C521.763,152.241 522.904,152.428 523.883,152.803C524.872,153.178 525.602,153.689 526.07,154.335C526.539,154.97 526.862,155.824 527.039,156.897L524.289,157.272C524.164,156.418 523.799,155.751 523.195,155.272C522.602,154.793 521.758,154.553 520.664,154.553C519.372,154.553 518.451,154.767 517.898,155.194C517.346,155.621 517.07,156.121 517.07,156.694C517.07,157.058 517.185,157.387 517.414,157.678C517.643,157.98 518.003,158.23 518.492,158.428C518.773,158.532 519.602,158.772 520.977,159.147C522.966,159.678 524.352,160.116 525.133,160.46C525.924,160.793 526.544,161.282 526.992,161.928C527.44,162.574 527.664,163.376 527.664,164.335C527.664,165.272 527.388,166.157 526.836,166.991C526.294,167.814 525.508,168.454 524.477,168.913C523.445,169.361 522.279,169.585 520.977,169.585C518.82,169.585 517.174,169.137 516.039,168.241C514.914,167.345 514.195,166.017 513.883,164.256ZM529.883,164.256L532.664,163.819C532.82,164.933 533.253,165.788 533.961,166.381C534.68,166.975 535.68,167.272 536.961,167.272C538.253,167.272 539.211,167.012 539.836,166.491C540.461,165.96 540.773,165.34 540.773,164.631C540.773,163.996 540.497,163.496 539.945,163.131C539.56,162.881 538.602,162.564 537.07,162.178C535.008,161.657 533.576,161.21 532.773,160.835C531.982,160.449 531.378,159.923 530.961,159.256C530.555,158.579 530.352,157.835 530.352,157.022C530.352,156.282 530.518,155.6 530.852,154.975C531.195,154.34 531.659,153.814 532.242,153.397C532.68,153.074 533.273,152.803 534.023,152.585C534.784,152.355 535.596,152.241 536.461,152.241C537.763,152.241 538.904,152.428 539.883,152.803C540.872,153.178 541.602,153.689 542.07,154.335C542.539,154.97 542.862,155.824 543.039,156.897L540.289,157.272C540.164,156.418 539.799,155.751 539.195,155.272C538.602,154.793 537.758,154.553 536.664,154.553C535.372,154.553 534.451,154.767 533.898,155.194C533.346,155.621 533.07,156.121 533.07,156.694C533.07,157.058 533.185,157.387 533.414,157.678C533.643,157.98 534.003,158.23 534.492,158.428C534.773,158.532 535.602,158.772 536.977,159.147C538.966,159.678 540.352,160.116 541.133,160.46C541.924,160.793 542.544,161.282 542.992,161.928C543.44,162.574 543.664,163.376 543.664,164.335C543.664,165.272 543.388,166.157 542.836,166.991C542.294,167.814 541.508,168.454 540.477,168.913C539.445,169.361 538.279,169.585 536.977,169.585C534.82,169.585 533.174,169.137 532.039,168.241C530.914,167.345 530.195,166.017 529.883,164.256ZM547.023,149.538L547.023,146.303L549.836,146.303L549.836,149.538L547.023,149.538ZM547.023,169.21L547.023,152.616L549.836,152.616L549.836,169.21L547.023,169.21ZM554.117,169.21L554.117,152.616L556.648,152.616L556.648,154.975C557.867,153.152 559.628,152.241 561.93,152.241C562.93,152.241 563.846,152.423 564.68,152.788C565.523,153.142 566.154,153.611 566.57,154.194C566.987,154.777 567.279,155.47 567.445,156.272C567.549,156.793 567.602,157.704 567.602,159.006L567.602,169.21L564.789,169.21L564.789,159.116C564.789,157.97 564.68,157.116 564.461,156.553C564.242,155.98 563.852,155.527 563.289,155.194C562.737,154.85 562.086,154.678 561.336,154.678C560.138,154.678 559.102,155.058 558.227,155.819C557.362,156.579 556.93,158.022 556.93,160.147L556.93,169.21L554.117,169.21ZM571.398,170.585L574.133,170.991C574.247,171.835 574.565,172.449 575.086,172.835C575.784,173.355 576.737,173.616 577.945,173.616C579.247,173.616 580.253,173.355 580.961,172.835C581.669,172.314 582.148,171.585 582.398,170.647C582.544,170.074 582.612,168.871 582.602,167.038C581.372,168.486 579.841,169.21 578.008,169.21C575.727,169.21 573.961,168.387 572.711,166.741C571.461,165.095 570.836,163.121 570.836,160.819C570.836,159.236 571.122,157.777 571.695,156.444C572.268,155.1 573.096,154.064 574.18,153.335C575.273,152.605 576.555,152.241 578.023,152.241C579.982,152.241 581.596,153.032 582.867,154.616L582.867,152.616L585.461,152.616L585.461,166.96C585.461,169.543 585.195,171.371 584.664,172.444C584.143,173.527 583.31,174.381 582.164,175.006C581.029,175.631 579.628,175.944 577.961,175.944C575.982,175.944 574.383,175.496 573.164,174.6C571.945,173.715 571.357,172.376 571.398,170.585ZM573.727,160.616C573.727,162.793 574.159,164.381 575.023,165.381C575.888,166.381 576.971,166.881 578.273,166.881C579.565,166.881 580.648,166.387 581.523,165.397C582.398,164.397 582.836,162.835 582.836,160.71C582.836,158.678 582.383,157.147 581.477,156.116C580.581,155.085 579.497,154.569 578.227,154.569C576.977,154.569 575.914,155.079 575.039,156.1C574.164,157.111 573.727,158.616 573.727,160.616Z" style="fill:rgb(243,243,243);fill-rule:nonzero;"/>
        <rect x="227.898" y="311.951" width="253.827" height="103.181" style="fill:rgb(0,138,188);"/>
        <path d="M290.741,351.671L299.538,328.765L302.803,328.765L312.178,351.671L308.725,351.671L306.053,344.734L296.475,344.734L293.959,351.671L290.741,351.671ZM297.35,342.265L305.116,342.265L302.725,335.921C301.996,333.994 301.454,332.411 301.1,331.171C300.808,332.64 300.397,334.099 299.866,335.546L297.35,342.265ZM314.241,351.671L314.241,335.078L316.772,335.078L316.772,337.437C317.991,335.614 319.751,334.703 322.053,334.703C323.053,334.703 323.97,334.885 324.803,335.25C325.647,335.604 326.277,336.072 326.694,336.656C327.111,337.239 327.402,337.932 327.569,338.734C327.673,339.255 327.725,340.166 327.725,341.468L327.725,351.671L324.913,351.671L324.913,341.578C324.913,340.432 324.803,339.578 324.584,339.015C324.366,338.442 323.975,337.989 323.413,337.656C322.861,337.312 322.209,337.14 321.459,337.14C320.262,337.14 319.225,337.52 318.35,338.281C317.486,339.041 317.053,340.484 317.053,342.609L317.053,351.671L314.241,351.671ZM342.866,349.625C341.824,350.51 340.819,351.135 339.85,351.5C338.892,351.864 337.861,352.046 336.756,352.046C334.933,352.046 333.532,351.604 332.553,350.718C331.574,349.822 331.084,348.682 331.084,347.296C331.084,346.484 331.267,345.744 331.631,345.078C332.006,344.401 332.491,343.859 333.084,343.453C333.689,343.046 334.366,342.739 335.116,342.531C335.668,342.385 336.501,342.244 337.616,342.109C339.887,341.838 341.558,341.515 342.631,341.14C342.642,340.755 342.647,340.51 342.647,340.406C342.647,339.26 342.381,338.453 341.85,337.984C341.131,337.349 340.064,337.031 338.647,337.031C337.324,337.031 336.345,337.265 335.709,337.734C335.084,338.192 334.621,339.01 334.319,340.187L331.569,339.812C331.819,338.635 332.23,337.687 332.803,336.968C333.376,336.239 334.204,335.682 335.288,335.296C336.371,334.901 337.626,334.703 339.053,334.703C340.47,334.703 341.621,334.869 342.506,335.203C343.392,335.536 344.043,335.958 344.459,336.468C344.876,336.968 345.168,337.604 345.334,338.375C345.428,338.854 345.475,339.718 345.475,340.968L345.475,344.718C345.475,347.333 345.532,348.989 345.647,349.687C345.772,350.375 346.012,351.036 346.366,351.671L343.428,351.671C343.137,351.088 342.949,350.406 342.866,349.625ZM342.631,343.343C341.611,343.76 340.079,344.114 338.038,344.406C336.881,344.572 336.064,344.76 335.584,344.968C335.105,345.177 334.736,345.484 334.475,345.89C334.215,346.286 334.084,346.729 334.084,347.218C334.084,347.968 334.366,348.593 334.928,349.093C335.501,349.593 336.334,349.843 337.428,349.843C338.512,349.843 339.475,349.609 340.319,349.14C341.163,348.661 341.782,348.01 342.178,347.187C342.48,346.552 342.631,345.614 342.631,344.375L342.631,343.343ZM349.772,351.671L349.772,328.765L352.584,328.765L352.584,351.671L349.772,351.671ZM356.819,358.062L356.506,355.421C357.121,355.588 357.657,355.671 358.116,355.671C358.741,355.671 359.241,355.567 359.616,355.359C359.991,355.151 360.298,354.859 360.538,354.484C360.715,354.203 361.001,353.505 361.397,352.39C361.449,352.234 361.532,352.005 361.647,351.703L355.35,335.078L358.381,335.078L361.834,344.687C362.282,345.906 362.683,347.187 363.038,348.531C363.361,347.239 363.746,345.979 364.194,344.75L367.741,335.078L370.553,335.078L364.241,351.953C363.564,353.776 363.038,355.031 362.663,355.718C362.163,356.645 361.59,357.322 360.944,357.75C360.298,358.187 359.527,358.406 358.631,358.406C358.09,358.406 357.486,358.291 356.819,358.062ZM371.819,346.718L374.6,346.281C374.756,347.395 375.189,348.25 375.897,348.843C376.616,349.437 377.616,349.734 378.897,349.734C380.189,349.734 381.147,349.474 381.772,348.953C382.397,348.421 382.709,347.802 382.709,347.093C382.709,346.458 382.433,345.958 381.881,345.593C381.496,345.343 380.538,345.026 379.006,344.64C376.944,344.119 375.512,343.671 374.709,343.296C373.918,342.911 373.314,342.385 372.897,341.718C372.491,341.041 372.288,340.296 372.288,339.484C372.288,338.744 372.454,338.062 372.788,337.437C373.131,336.802 373.595,336.276 374.178,335.859C374.616,335.536 375.209,335.265 375.959,335.046C376.72,334.817 377.532,334.703 378.397,334.703C379.699,334.703 380.84,334.89 381.819,335.265C382.808,335.64 383.538,336.151 384.006,336.796C384.475,337.432 384.798,338.286 384.975,339.359L382.225,339.734C382.1,338.88 381.736,338.213 381.131,337.734C380.538,337.255 379.694,337.015 378.6,337.015C377.308,337.015 376.387,337.229 375.834,337.656C375.282,338.083 375.006,338.583 375.006,339.156C375.006,339.52 375.121,339.849 375.35,340.14C375.579,340.442 375.939,340.692 376.428,340.89C376.709,340.994 377.538,341.234 378.913,341.609C380.902,342.14 382.288,342.578 383.069,342.921C383.861,343.255 384.48,343.744 384.928,344.39C385.376,345.036 385.6,345.838 385.6,346.796C385.6,347.734 385.324,348.619 384.772,349.453C384.23,350.276 383.444,350.916 382.413,351.375C381.381,351.822 380.215,352.046 378.913,352.046C376.756,352.046 375.111,351.599 373.975,350.703C372.85,349.807 372.131,348.479 371.819,346.718ZM388.959,332L388.959,328.765L391.772,328.765L391.772,332L388.959,332ZM388.959,351.671L388.959,335.078L391.772,335.078L391.772,351.671L388.959,351.671ZM394.928,346.718L397.709,346.281C397.866,347.395 398.298,348.25 399.006,348.843C399.725,349.437 400.725,349.734 402.006,349.734C403.298,349.734 404.256,349.474 404.881,348.953C405.506,348.421 405.819,347.802 405.819,347.093C405.819,346.458 405.543,345.958 404.991,345.593C404.605,345.343 403.647,345.026 402.116,344.64C400.053,344.119 398.621,343.671 397.819,343.296C397.027,342.911 396.423,342.385 396.006,341.718C395.6,341.041 395.397,340.296 395.397,339.484C395.397,338.744 395.564,338.062 395.897,337.437C396.241,336.802 396.704,336.276 397.288,335.859C397.725,335.536 398.319,335.265 399.069,335.046C399.829,334.817 400.642,334.703 401.506,334.703C402.808,334.703 403.949,334.89 404.928,335.265C405.918,335.64 406.647,336.151 407.116,336.796C407.584,337.432 407.907,338.286 408.084,339.359L405.334,339.734C405.209,338.88 404.845,338.213 404.241,337.734C403.647,337.255 402.803,337.015 401.709,337.015C400.418,337.015 399.496,337.229 398.944,337.656C398.392,338.083 398.116,338.583 398.116,339.156C398.116,339.52 398.23,339.849 398.459,340.14C398.689,340.442 399.048,340.692 399.538,340.89C399.819,340.994 400.647,341.234 402.022,341.609C404.012,342.14 405.397,342.578 406.178,342.921C406.97,343.255 407.59,343.744 408.038,344.39C408.486,345.036 408.709,345.838 408.709,346.796C408.709,347.734 408.433,348.619 407.881,349.453C407.34,350.276 406.553,350.916 405.522,351.375C404.491,351.822 403.324,352.046 402.022,352.046C399.866,352.046 398.22,351.599 397.084,350.703C395.959,349.807 395.241,348.479 394.928,346.718ZM409.944,352.062L416.584,328.375L418.834,328.375L412.209,352.062L409.944,352.062Z" style="fill:rgb(243,243,243);fill-rule:nonzero;"/>
        <path d="M288.702,389.671L288.702,366.765L293.264,366.765L298.686,382.984C299.186,384.494 299.551,385.625 299.78,386.375C300.04,385.541 300.446,384.317 300.999,382.703L306.483,366.765L310.561,366.765L310.561,389.671L307.639,389.671L307.639,370.5L300.983,389.671L298.249,389.671L291.624,370.171L291.624,389.671L288.702,389.671ZM314.045,381.375C314.045,378.302 314.9,376.026 316.608,374.546C318.035,373.317 319.775,372.703 321.827,372.703C324.108,372.703 325.972,373.453 327.42,374.953C328.868,376.442 329.592,378.505 329.592,381.14C329.592,383.276 329.269,384.958 328.624,386.187C327.988,387.406 327.056,388.354 325.827,389.031C324.608,389.708 323.275,390.046 321.827,390.046C319.504,390.046 317.624,389.302 316.186,387.812C314.759,386.322 314.045,384.177 314.045,381.375ZM316.936,381.375C316.936,383.5 317.4,385.093 318.327,386.156C319.254,387.208 320.42,387.734 321.827,387.734C323.222,387.734 324.384,387.203 325.311,386.14C326.238,385.078 326.702,383.458 326.702,381.281C326.702,379.229 326.233,377.677 325.295,376.625C324.368,375.562 323.212,375.031 321.827,375.031C320.42,375.031 319.254,375.557 318.327,376.609C317.4,377.661 316.936,379.25 316.936,381.375ZM343.655,389.671L343.655,387.578C342.603,389.224 341.056,390.046 339.014,390.046C337.691,390.046 336.472,389.682 335.358,388.953C334.254,388.224 333.394,387.208 332.78,385.906C332.176,384.593 331.874,383.088 331.874,381.39C331.874,379.734 332.15,378.234 332.702,376.89C333.254,375.536 334.082,374.5 335.186,373.781C336.29,373.062 337.525,372.703 338.889,372.703C339.889,372.703 340.78,372.916 341.561,373.343C342.342,373.76 342.978,374.307 343.467,374.984L343.467,366.765L346.264,366.765L346.264,389.671L343.655,389.671ZM334.764,381.39C334.764,383.515 335.212,385.104 336.108,386.156C337.004,387.208 338.061,387.734 339.28,387.734C340.509,387.734 341.551,387.234 342.405,386.234C343.269,385.224 343.702,383.687 343.702,381.625C343.702,379.354 343.264,377.687 342.389,376.625C341.514,375.562 340.436,375.031 339.155,375.031C337.905,375.031 336.858,375.541 336.014,376.562C335.181,377.583 334.764,379.192 334.764,381.39ZM362.045,384.328L364.952,384.687C364.493,386.385 363.644,387.703 362.405,388.64C361.165,389.578 359.582,390.046 357.655,390.046C355.228,390.046 353.301,389.302 351.874,387.812C350.457,386.312 349.749,384.213 349.749,381.515C349.749,378.724 350.467,376.557 351.905,375.015C353.342,373.474 355.207,372.703 357.499,372.703C359.717,372.703 361.53,373.458 362.936,374.968C364.342,376.479 365.045,378.604 365.045,381.343C365.045,381.51 365.04,381.76 365.03,382.093L352.655,382.093C352.759,383.916 353.275,385.312 354.202,386.281C355.129,387.25 356.285,387.734 357.67,387.734C358.702,387.734 359.582,387.463 360.311,386.921C361.04,386.38 361.618,385.515 362.045,384.328ZM352.811,379.781L362.077,379.781C361.952,378.385 361.597,377.338 361.014,376.64C360.118,375.557 358.957,375.015 357.53,375.015C356.238,375.015 355.15,375.447 354.264,376.312C353.389,377.177 352.905,378.333 352.811,379.781ZM368.42,389.671L368.42,366.765L371.233,366.765L371.233,389.671L368.42,389.671ZM375.53,389.671L375.53,366.765L378.342,366.765L378.342,389.671L375.53,389.671ZM382.717,370L382.717,366.765L385.53,366.765L385.53,370L382.717,370ZM382.717,389.671L382.717,373.078L385.53,373.078L385.53,389.671L382.717,389.671ZM389.811,389.671L389.811,373.078L392.342,373.078L392.342,375.437C393.561,373.614 395.321,372.703 397.624,372.703C398.624,372.703 399.54,372.885 400.374,373.25C401.217,373.604 401.847,374.072 402.264,374.656C402.681,375.239 402.972,375.932 403.139,376.734C403.243,377.255 403.295,378.166 403.295,379.468L403.295,389.671L400.483,389.671L400.483,379.578C400.483,378.432 400.374,377.578 400.155,377.015C399.936,376.442 399.545,375.989 398.983,375.656C398.431,375.312 397.78,375.14 397.03,375.14C395.832,375.14 394.795,375.52 393.92,376.281C393.056,377.041 392.624,378.484 392.624,380.609L392.624,389.671L389.811,389.671ZM407.092,391.046L409.827,391.453C409.941,392.296 410.259,392.911 410.78,393.296C411.478,393.817 412.431,394.078 413.639,394.078C414.941,394.078 415.946,393.817 416.655,393.296C417.363,392.776 417.842,392.046 418.092,391.109C418.238,390.536 418.306,389.333 418.295,387.5C417.066,388.947 415.535,389.671 413.702,389.671C411.42,389.671 409.655,388.849 408.405,387.203C407.155,385.557 406.53,383.583 406.53,381.281C406.53,379.697 406.816,378.239 407.389,376.906C407.962,375.562 408.79,374.526 409.874,373.796C410.967,373.067 412.249,372.703 413.717,372.703C415.676,372.703 417.29,373.494 418.561,375.078L418.561,373.078L421.155,373.078L421.155,387.421C421.155,390.005 420.889,391.833 420.358,392.906C419.837,393.989 419.004,394.843 417.858,395.468C416.722,396.093 415.321,396.406 413.655,396.406C411.676,396.406 410.077,395.958 408.858,395.062C407.639,394.177 407.051,392.838 407.092,391.046ZM409.42,381.078C409.42,383.255 409.853,384.843 410.717,385.843C411.582,386.843 412.665,387.343 413.967,387.343C415.259,387.343 416.342,386.849 417.217,385.859C418.092,384.859 418.53,383.296 418.53,381.171C418.53,379.14 418.077,377.609 417.17,376.578C416.275,375.546 415.191,375.031 413.92,375.031C412.67,375.031 411.608,375.541 410.733,376.562C409.858,377.572 409.42,379.078 409.42,381.078Z" style="fill:rgb(243,243,243);fill-rule:nonzero;"/>
        <rect x="99.656" y="527.367" width="218.016" height="55.276" style="fill:rgb(0,138,188);"/>
        <path d="M152.594,567.087L152.594,544.181L168.047,544.181L168.047,546.884L155.625,546.884L155.625,553.978L166.375,553.978L166.375,556.681L155.625,556.681L155.625,567.087L152.594,567.087ZM171.641,547.416L171.641,544.181L174.453,544.181L174.453,547.416L171.641,547.416ZM171.641,567.087L171.641,550.494L174.453,550.494L174.453,567.087L171.641,567.087ZM178.219,568.462L180.953,568.869C181.068,569.712 181.385,570.327 181.906,570.712C182.604,571.233 183.557,571.494 184.766,571.494C186.068,571.494 187.073,571.233 187.781,570.712C188.49,570.192 188.969,569.462 189.219,568.525C189.365,567.952 189.432,566.749 189.422,564.916C188.193,566.364 186.661,567.087 184.828,567.087C182.547,567.087 180.781,566.265 179.531,564.619C178.281,562.973 177.656,560.999 177.656,558.697C177.656,557.114 177.943,555.655 178.516,554.322C179.089,552.978 179.917,551.942 181,551.212C182.094,550.483 183.375,550.119 184.844,550.119C186.802,550.119 188.417,550.91 189.687,552.494L189.687,550.494L192.281,550.494L192.281,564.837C192.281,567.421 192.016,569.249 191.484,570.322C190.964,571.405 190.13,572.259 188.984,572.884C187.849,573.509 186.448,573.822 184.781,573.822C182.802,573.822 181.203,573.374 179.984,572.478C178.766,571.593 178.177,570.254 178.219,568.462ZM180.547,558.494C180.547,560.671 180.979,562.259 181.844,563.259C182.708,564.259 183.792,564.759 185.094,564.759C186.385,564.759 187.469,564.265 188.344,563.275C189.219,562.275 189.656,560.712 189.656,558.587C189.656,556.556 189.203,555.025 188.297,553.994C187.401,552.962 186.318,552.447 185.047,552.447C183.797,552.447 182.734,552.957 181.859,553.978C180.984,554.989 180.547,556.494 180.547,558.494ZM207.406,567.087L207.406,564.65C206.115,566.525 204.359,567.462 202.141,567.462C201.161,567.462 200.245,567.275 199.391,566.9C198.547,566.525 197.917,566.056 197.5,565.494C197.094,564.921 196.807,564.223 196.641,563.4C196.526,562.848 196.469,561.973 196.469,560.775L196.469,550.494L199.281,550.494L199.281,559.697C199.281,561.166 199.339,562.155 199.453,562.666C199.63,563.405 200.005,563.989 200.578,564.416C201.151,564.832 201.859,565.041 202.703,565.041C203.547,565.041 204.339,564.827 205.078,564.4C205.818,563.962 206.339,563.374 206.641,562.634C206.953,561.884 207.109,560.801 207.109,559.384L207.109,550.494L209.922,550.494L209.922,567.087L207.406,567.087ZM214.297,567.087L214.297,550.494L216.828,550.494L216.828,553.009C217.474,551.832 218.068,551.056 218.609,550.681C219.161,550.306 219.766,550.119 220.422,550.119C221.37,550.119 222.333,550.421 223.312,551.025L222.344,553.634C221.656,553.228 220.969,553.025 220.281,553.025C219.667,553.025 219.115,553.212 218.625,553.587C218.135,553.952 217.786,554.462 217.578,555.119C217.266,556.119 217.109,557.212 217.109,558.4L217.109,567.087L214.297,567.087ZM236.344,561.744L239.25,562.103C238.792,563.801 237.943,565.119 236.703,566.056C235.464,566.994 233.88,567.462 231.953,567.462C229.526,567.462 227.599,566.718 226.172,565.228C224.755,563.728 224.047,561.629 224.047,558.931C224.047,556.14 224.766,553.973 226.203,552.431C227.641,550.89 229.505,550.119 231.797,550.119C234.016,550.119 235.828,550.874 237.234,552.384C238.641,553.895 239.344,556.02 239.344,558.759C239.344,558.926 239.339,559.176 239.328,559.509L226.953,559.509C227.057,561.332 227.573,562.728 228.5,563.697C229.427,564.666 230.583,565.15 231.969,565.15C233,565.15 233.88,564.879 234.609,564.337C235.339,563.796 235.917,562.931 236.344,561.744ZM227.109,557.197L236.375,557.197C236.25,555.801 235.896,554.754 235.312,554.056C234.417,552.973 233.255,552.431 231.828,552.431C230.536,552.431 229.448,552.864 228.562,553.728C227.687,554.593 227.203,555.749 227.109,557.197ZM261.484,567.087L258.672,567.087L258.672,549.166C257.995,549.811 257.104,550.457 256,551.103C254.906,551.749 253.922,552.233 253.047,552.556L253.047,549.837C254.62,549.098 255.995,548.202 257.172,547.15C258.349,546.098 259.182,545.077 259.672,544.087L261.484,544.087L261.484,567.087Z" style="fill:rgb(243,243,243);fill-rule:nonzero;"/>
        <rect x="370.992" y="527.367" width="218.016" height="55.276" style="fill:rgb(0,138,188);"/>
        <path d="M423.93,567.087L423.93,544.181L439.383,544.181L439.383,546.884L426.961,546.884L426.961,553.978L437.711,553.978L437.711,556.681L426.961,556.681L426.961,567.087L423.93,567.087ZM442.977,547.416L442.977,544.181L445.789,544.181L445.789,547.416L442.977,547.416ZM442.977,567.087L442.977,550.494L445.789,550.494L445.789,567.087L442.977,567.087ZM449.555,568.462L452.289,568.869C452.404,569.712 452.721,570.327 453.242,570.712C453.94,571.233 454.893,571.494 456.102,571.494C457.404,571.494 458.409,571.233 459.117,570.712C459.826,570.192 460.305,569.462 460.555,568.525C460.701,567.952 460.768,566.749 460.758,564.916C459.529,566.364 457.997,567.087 456.164,567.087C453.883,567.087 452.117,566.265 450.867,564.619C449.617,562.973 448.992,560.999 448.992,558.697C448.992,557.114 449.279,555.655 449.852,554.322C450.424,552.978 451.253,551.942 452.336,551.212C453.43,550.483 454.711,550.119 456.18,550.119C458.138,550.119 459.753,550.91 461.023,552.494L461.023,550.494L463.617,550.494L463.617,564.837C463.617,567.421 463.352,569.249 462.82,570.322C462.299,571.405 461.466,572.259 460.32,572.884C459.185,573.509 457.784,573.822 456.117,573.822C454.138,573.822 452.539,573.374 451.32,572.478C450.102,571.593 449.513,570.254 449.555,568.462ZM451.883,558.494C451.883,560.671 452.315,562.259 453.18,563.259C454.044,564.259 455.128,564.759 456.43,564.759C457.721,564.759 458.805,564.265 459.68,563.275C460.555,562.275 460.992,560.712 460.992,558.587C460.992,556.556 460.539,555.025 459.633,553.994C458.737,552.962 457.654,552.447 456.383,552.447C455.133,552.447 454.07,552.957 453.195,553.978C452.32,554.989 451.883,556.494 451.883,558.494ZM478.742,567.087L478.742,564.65C477.451,566.525 475.695,567.462 473.477,567.462C472.497,567.462 471.581,567.275 470.727,566.9C469.883,566.525 469.253,566.056 468.836,565.494C468.43,564.921 468.143,564.223 467.977,563.4C467.862,562.848 467.805,561.973 467.805,560.775L467.805,550.494L470.617,550.494L470.617,559.697C470.617,561.166 470.674,562.155 470.789,562.666C470.966,563.405 471.341,563.989 471.914,564.416C472.487,564.832 473.195,565.041 474.039,565.041C474.883,565.041 475.674,564.827 476.414,564.4C477.154,563.962 477.674,563.374 477.977,562.634C478.289,561.884 478.445,560.801 478.445,559.384L478.445,550.494L481.258,550.494L481.258,567.087L478.742,567.087ZM485.633,567.087L485.633,550.494L488.164,550.494L488.164,553.009C488.81,551.832 489.404,551.056 489.945,550.681C490.497,550.306 491.102,550.119 491.758,550.119C492.706,550.119 493.669,550.421 494.648,551.025L493.68,553.634C492.992,553.228 492.305,553.025 491.617,553.025C491.003,553.025 490.451,553.212 489.961,553.587C489.471,553.952 489.122,554.462 488.914,555.119C488.602,556.119 488.445,557.212 488.445,558.4L488.445,567.087L485.633,567.087ZM507.68,561.744L510.586,562.103C510.128,563.801 509.279,565.119 508.039,566.056C506.799,566.994 505.216,567.462 503.289,567.462C500.862,567.462 498.935,566.718 497.508,565.228C496.091,563.728 495.383,561.629 495.383,558.931C495.383,556.14 496.102,553.973 497.539,552.431C498.977,550.89 500.841,550.119 503.133,550.119C505.352,550.119 507.164,550.874 508.57,552.384C509.977,553.895 510.68,556.02 510.68,558.759C510.68,558.926 510.674,559.176 510.664,559.509L498.289,559.509C498.393,561.332 498.909,562.728 499.836,563.697C500.763,564.666 501.919,565.15 503.305,565.15C504.336,565.15 505.216,564.879 505.945,564.337C506.674,563.796 507.253,562.931 507.68,561.744ZM498.445,557.197L507.711,557.197C507.586,555.801 507.232,554.754 506.648,554.056C505.753,552.973 504.591,552.431 503.164,552.431C501.872,552.431 500.784,552.864 499.898,553.728C499.023,554.593 498.539,555.749 498.445,557.197ZM537.008,564.384L537.008,567.087L521.867,567.087C521.846,566.41 521.956,565.759 522.195,565.134C522.581,564.103 523.195,563.087 524.039,562.087C524.893,561.087 526.122,559.931 527.727,558.619C530.216,556.577 531.898,554.962 532.773,553.775C533.648,552.577 534.086,551.447 534.086,550.384C534.086,549.27 533.685,548.332 532.883,547.572C532.091,546.801 531.055,546.416 529.773,546.416C528.419,546.416 527.336,546.822 526.523,547.634C525.711,548.447 525.299,549.572 525.289,551.009L522.398,550.712C522.596,548.556 523.341,546.916 524.633,545.791C525.924,544.655 527.659,544.087 529.836,544.087C532.034,544.087 533.773,544.697 535.055,545.916C536.336,547.134 536.977,548.645 536.977,550.447C536.977,551.364 536.789,552.265 536.414,553.15C536.039,554.035 535.414,554.968 534.539,555.947C533.674,556.926 532.232,558.27 530.211,559.978C528.523,561.395 527.44,562.358 526.961,562.869C526.482,563.369 526.086,563.874 525.773,564.384L537.008,564.384Z" style="fill:rgb(243,243,243);fill-rule:nonzero;"/>
        <rect x="642.328" y="527.367" width="218.016" height="55.276" style="fill:rgb(0,138,188);"/>
        <path d="M695.266,567.087L695.266,544.181L710.719,544.181L710.719,546.884L698.297,546.884L698.297,553.978L709.047,553.978L709.047,556.681L698.297,556.681L698.297,567.087L695.266,567.087ZM714.312,547.416L714.312,544.181L717.125,544.181L717.125,547.416L714.312,547.416ZM714.312,567.087L714.312,550.494L717.125,550.494L717.125,567.087L714.312,567.087ZM720.891,568.462L723.625,568.869C723.74,569.712 724.057,570.327 724.578,570.712C725.276,571.233 726.229,571.494 727.437,571.494C728.74,571.494 729.745,571.233 730.453,570.712C731.161,570.192 731.641,569.462 731.891,568.525C732.036,567.952 732.104,566.749 732.094,564.916C730.865,566.364 729.333,567.087 727.5,567.087C725.219,567.087 723.453,566.265 722.203,564.619C720.953,562.973 720.328,560.999 720.328,558.697C720.328,557.114 720.615,555.655 721.187,554.322C721.76,552.978 722.589,551.942 723.672,551.212C724.766,550.483 726.047,550.119 727.516,550.119C729.474,550.119 731.089,550.91 732.359,552.494L732.359,550.494L734.953,550.494L734.953,564.837C734.953,567.421 734.687,569.249 734.156,570.322C733.635,571.405 732.802,572.259 731.656,572.884C730.521,573.509 729.12,573.822 727.453,573.822C725.474,573.822 723.875,573.374 722.656,572.478C721.437,571.593 720.849,570.254 720.891,568.462ZM723.219,558.494C723.219,560.671 723.651,562.259 724.516,563.259C725.38,564.259 726.464,564.759 727.766,564.759C729.057,564.759 730.141,564.265 731.016,563.275C731.891,562.275 732.328,560.712 732.328,558.587C732.328,556.556 731.875,555.025 730.969,553.994C730.073,552.962 728.99,552.447 727.719,552.447C726.469,552.447 725.406,552.957 724.531,553.978C723.656,554.989 723.219,556.494 723.219,558.494ZM750.078,567.087L750.078,564.65C748.786,566.525 747.031,567.462 744.812,567.462C743.833,567.462 742.917,567.275 742.062,566.9C741.219,566.525 740.589,566.056 740.172,565.494C739.766,564.921 739.479,564.223 739.312,563.4C739.198,562.848 739.141,561.973 739.141,560.775L739.141,550.494L741.953,550.494L741.953,559.697C741.953,561.166 742.01,562.155 742.125,562.666C742.302,563.405 742.677,563.989 743.25,564.416C743.823,564.832 744.531,565.041 745.375,565.041C746.219,565.041 747.01,564.827 747.75,564.4C748.49,563.962 749.01,563.374 749.312,562.634C749.625,561.884 749.781,560.801 749.781,559.384L749.781,550.494L752.594,550.494L752.594,567.087L750.078,567.087ZM756.969,567.087L756.969,550.494L759.5,550.494L759.5,553.009C760.146,551.832 760.74,551.056 761.281,550.681C761.833,550.306 762.437,550.119 763.094,550.119C764.042,550.119 765.005,550.421 765.984,551.025L765.016,553.634C764.328,553.228 763.641,553.025 762.953,553.025C762.339,553.025 761.786,553.212 761.297,553.587C760.807,553.952 760.458,554.462 760.25,555.119C759.937,556.119 759.781,557.212 759.781,558.4L759.781,567.087L756.969,567.087ZM779.016,561.744L781.922,562.103C781.464,563.801 780.615,565.119 779.375,566.056C778.135,566.994 776.552,567.462 774.625,567.462C772.198,567.462 770.271,566.718 768.844,565.228C767.427,563.728 766.719,561.629 766.719,558.931C766.719,556.14 767.437,553.973 768.875,552.431C770.312,550.89 772.177,550.119 774.469,550.119C776.687,550.119 778.5,550.874 779.906,552.384C781.312,553.895 782.016,556.02 782.016,558.759C782.016,558.926 782.01,559.176 782,559.509L769.625,559.509C769.729,561.332 770.245,562.728 771.172,563.697C772.099,564.666 773.255,565.15 774.641,565.15C775.672,565.15 776.552,564.879 777.281,564.337C778.01,563.796 778.589,562.931 779.016,561.744ZM769.781,557.197L779.047,557.197C778.922,555.801 778.568,554.754 777.984,554.056C777.089,552.973 775.927,552.431 774.5,552.431C773.208,552.431 772.12,552.864 771.234,553.728C770.359,554.593 769.875,555.749 769.781,557.197ZM793.578,561.041L796.391,560.666C796.714,562.259 797.26,563.41 798.031,564.119C798.812,564.817 799.76,565.166 800.875,565.166C802.198,565.166 803.312,564.707 804.219,563.791C805.135,562.874 805.594,561.739 805.594,560.384C805.594,559.093 805.172,558.03 804.328,557.197C803.484,556.353 802.411,555.931 801.109,555.931C800.578,555.931 799.917,556.035 799.125,556.244L799.437,553.775C799.625,553.796 799.776,553.806 799.891,553.806C801.089,553.806 802.167,553.494 803.125,552.869C804.083,552.244 804.562,551.28 804.562,549.978C804.562,548.947 804.214,548.093 803.516,547.416C802.818,546.739 801.917,546.4 800.812,546.4C799.719,546.4 798.807,546.744 798.078,547.431C797.349,548.119 796.88,549.15 796.672,550.525L793.859,550.025C794.203,548.14 794.984,546.681 796.203,545.65C797.422,544.608 798.937,544.087 800.75,544.087C802,544.087 803.151,544.358 804.203,544.9C805.255,545.431 806.057,546.16 806.609,547.087C807.172,548.015 807.453,548.999 807.453,550.041C807.453,551.03 807.187,551.931 806.656,552.744C806.125,553.556 805.339,554.202 804.297,554.681C805.651,554.994 806.703,555.645 807.453,556.634C808.203,557.614 808.578,558.843 808.578,560.322C808.578,562.322 807.849,564.02 806.391,565.416C804.932,566.801 803.089,567.494 800.859,567.494C798.849,567.494 797.177,566.895 795.844,565.697C794.521,564.499 793.766,562.947 793.578,561.041Z" style="fill:white;fill-rule:nonzero;"/>
        <path d="M406.394,59.373C406.394,54.926 409.999,51.32 414.446,51.32L545.554,51.32C547.689,51.32 549.738,52.169 551.248,53.679C552.758,55.189 553.606,57.237 553.606,59.373L553.606,91.583C553.606,96.03 550.001,99.635 545.554,99.635L414.446,99.635C409.999,99.635 406.394,96.03 406.394,91.583L406.394,59.373Z" style="fill:rgb(241,194,50);"/>
        <path d="M425.788,85.078L425.788,66L434.256,66C435.954,66 437.246,66.171 438.131,66.515C439.017,66.859 439.72,67.463 440.241,68.328C440.772,69.192 441.038,70.151 441.038,71.203C441.038,72.557 440.6,73.697 439.725,74.625C438.85,75.552 437.496,76.14 435.663,76.39C436.34,76.713 436.85,77.031 437.194,77.343C437.933,78.02 438.631,78.869 439.288,79.89L442.6,85.078L439.428,85.078L436.913,81.109C436.173,79.963 435.564,79.088 435.085,78.484C434.605,77.869 434.178,77.442 433.803,77.203C433.428,76.963 433.043,76.796 432.647,76.703C432.366,76.64 431.897,76.609 431.241,76.609L428.319,76.609L428.319,85.078L425.788,85.078ZM428.319,74.421L433.741,74.421C434.897,74.421 435.798,74.302 436.444,74.062C437.1,73.822 437.595,73.442 437.928,72.921C438.272,72.39 438.444,71.817 438.444,71.203C438.444,70.296 438.116,69.557 437.46,68.984C436.803,68.401 435.767,68.109 434.35,68.109L428.319,68.109L428.319,74.421ZM453.725,83.375C452.85,84.114 452.012,84.635 451.21,84.937C450.408,85.239 449.548,85.39 448.632,85.39C447.111,85.39 445.944,85.02 445.132,84.281C444.319,83.541 443.913,82.593 443.913,81.437C443.913,80.76 444.064,80.14 444.366,79.578C444.679,79.015 445.085,78.567 445.585,78.234C446.085,77.89 446.647,77.635 447.272,77.468C447.731,77.343 448.423,77.224 449.35,77.109C451.236,76.89 452.626,76.625 453.522,76.312C453.533,75.989 453.538,75.781 453.538,75.687C453.538,74.739 453.319,74.067 452.882,73.671C452.277,73.14 451.387,72.875 450.21,72.875C449.106,72.875 448.288,73.072 447.757,73.468C447.236,73.854 446.85,74.536 446.6,75.515L444.304,75.203C444.512,74.224 444.856,73.432 445.335,72.828C445.814,72.224 446.501,71.76 447.397,71.437C448.304,71.104 449.35,70.937 450.538,70.937C451.725,70.937 452.684,71.078 453.413,71.359C454.152,71.64 454.694,71.989 455.038,72.406C455.392,72.822 455.637,73.354 455.772,74C455.856,74.395 455.897,75.114 455.897,76.156L455.897,79.281C455.897,81.458 455.944,82.838 456.038,83.421C456.142,83.994 456.34,84.546 456.632,85.078L454.194,85.078C453.944,84.588 453.788,84.02 453.725,83.375ZM453.522,78.14C452.679,78.484 451.402,78.781 449.694,79.031C448.736,79.166 448.054,79.322 447.647,79.5C447.251,79.666 446.944,79.916 446.725,80.25C446.517,80.583 446.413,80.958 446.413,81.375C446.413,82 446.647,82.52 447.116,82.937C447.585,83.354 448.277,83.562 449.194,83.562C450.09,83.562 450.887,83.364 451.585,82.968C452.293,82.572 452.814,82.031 453.147,81.343C453.397,80.812 453.522,80.031 453.522,79L453.522,78.14ZM462.082,85.078L457.847,71.25L460.269,71.25L462.472,79.234L463.285,82.203C463.326,82.057 463.566,81.104 464.003,79.343L466.207,71.25L468.613,71.25L470.675,79.265L471.363,81.921L472.16,79.25L474.535,71.25L476.816,71.25L472.488,85.078L470.05,85.078L467.863,76.796L467.316,74.437L464.519,85.078L462.082,85.078ZM495.144,85.078L495.144,83.328C494.269,84.703 492.983,85.39 491.285,85.39C490.181,85.39 489.165,85.088 488.238,84.484C487.321,83.869 486.608,83.02 486.097,81.937C485.587,80.843 485.332,79.593 485.332,78.187C485.332,76.802 485.561,75.546 486.019,74.421C486.488,73.296 487.181,72.437 488.097,71.843C489.014,71.239 490.04,70.937 491.175,70.937C492.009,70.937 492.748,71.114 493.394,71.468C494.05,71.822 494.582,72.281 494.988,72.843L494.988,66L497.332,66L497.332,85.078L495.144,85.078ZM487.738,78.187C487.738,79.947 488.113,81.27 488.863,82.156C489.613,83.031 490.493,83.468 491.503,83.468C492.524,83.468 493.394,83.052 494.113,82.218C494.832,81.375 495.191,80.093 495.191,78.375C495.191,76.479 494.826,75.088 494.097,74.203C493.368,73.317 492.467,72.875 491.394,72.875C490.363,72.875 489.493,73.302 488.785,74.156C488.087,75.01 487.738,76.354 487.738,78.187ZM510.032,83.375C509.157,84.114 508.318,84.635 507.516,84.937C506.714,85.239 505.854,85.39 504.938,85.39C503.417,85.39 502.25,85.02 501.438,84.281C500.625,83.541 500.219,82.593 500.219,81.437C500.219,80.76 500.37,80.14 500.672,79.578C500.985,79.015 501.391,78.567 501.891,78.234C502.391,77.89 502.953,77.635 503.578,77.468C504.037,77.343 504.729,77.224 505.657,77.109C507.542,76.89 508.933,76.625 509.828,76.312C509.839,75.989 509.844,75.781 509.844,75.687C509.844,74.739 509.625,74.067 509.188,73.671C508.584,73.14 507.693,72.875 506.516,72.875C505.412,72.875 504.594,73.072 504.063,73.468C503.542,73.854 503.157,74.536 502.907,75.515L500.61,75.203C500.818,74.224 501.162,73.432 501.641,72.828C502.12,72.224 502.808,71.76 503.703,71.437C504.61,71.104 505.657,70.937 506.844,70.937C508.032,70.937 508.99,71.078 509.719,71.359C510.459,71.64 511,71.989 511.344,72.406C511.698,72.822 511.943,73.354 512.078,74C512.162,74.395 512.203,75.114 512.203,76.156L512.203,79.281C512.203,81.458 512.25,82.838 512.344,83.421C512.448,83.994 512.646,84.546 512.938,85.078L510.5,85.078C510.25,84.588 510.094,84.02 510.032,83.375ZM509.828,78.14C508.985,78.484 507.709,78.781 506,79.031C505.042,79.166 504.36,79.322 503.953,79.5C503.558,79.666 503.25,79.916 503.032,80.25C502.823,80.583 502.719,80.958 502.719,81.375C502.719,82 502.953,82.52 503.422,82.937C503.891,83.354 504.584,83.562 505.5,83.562C506.396,83.562 507.193,83.364 507.891,82.968C508.599,82.572 509.12,82.031 509.453,81.343C509.703,80.812 509.828,80.031 509.828,79L509.828,78.14ZM520.95,82.984L521.278,85.046C520.622,85.192 520.034,85.265 519.513,85.265C518.669,85.265 518.013,85.13 517.544,84.859C517.075,84.588 516.742,84.234 516.544,83.796C516.356,83.359 516.263,82.437 516.263,81.031L516.263,73.078L514.544,73.078L514.544,71.25L516.263,71.25L516.263,67.828L518.591,66.421L518.591,71.25L520.95,71.25L520.95,73.078L518.591,73.078L518.591,81.156C518.591,81.822 518.632,82.255 518.716,82.453C518.799,82.64 518.935,82.791 519.122,82.906C519.31,83.02 519.575,83.078 519.919,83.078C520.179,83.078 520.523,83.046 520.95,82.984ZM532.262,83.375C531.387,84.114 530.549,84.635 529.747,84.937C528.945,85.239 528.085,85.39 527.169,85.39C525.648,85.39 524.481,85.02 523.669,84.281C522.856,83.541 522.45,82.593 522.45,81.437C522.45,80.76 522.601,80.14 522.903,79.578C523.216,79.015 523.622,78.567 524.122,78.234C524.622,77.89 525.184,77.635 525.809,77.468C526.268,77.343 526.96,77.224 527.887,77.109C529.773,76.89 531.163,76.625 532.059,76.312C532.07,75.989 532.075,75.781 532.075,75.687C532.075,74.739 531.856,74.067 531.419,73.671C530.815,73.14 529.924,72.875 528.747,72.875C527.643,72.875 526.825,73.072 526.294,73.468C525.773,73.854 525.387,74.536 525.137,75.515L522.841,75.203C523.049,74.224 523.393,73.432 523.872,72.828C524.351,72.224 525.038,71.76 525.934,71.437C526.841,71.104 527.887,70.937 529.075,70.937C530.262,70.937 531.221,71.078 531.95,71.359C532.69,71.64 533.231,71.989 533.575,72.406C533.929,72.822 534.174,73.354 534.309,74C534.393,74.395 534.434,75.114 534.434,76.156L534.434,79.281C534.434,81.458 534.481,82.838 534.575,83.421C534.679,83.994 534.877,84.546 535.169,85.078L532.731,85.078C532.481,84.588 532.325,84.02 532.262,83.375ZM532.059,78.14C531.216,78.484 529.94,78.781 528.231,79.031C527.273,79.166 526.591,79.322 526.184,79.5C525.788,79.666 525.481,79.916 525.262,80.25C525.054,80.583 524.95,80.958 524.95,81.375C524.95,82 525.184,82.52 525.653,82.937C526.122,83.354 526.815,83.562 527.731,83.562C528.627,83.562 529.424,83.364 530.122,82.968C530.83,82.572 531.351,82.031 531.684,81.343C531.934,80.812 532.059,80.031 532.059,79L532.059,78.14Z" style="fill-rule:nonzero;"/>
        <path d="M366.157,225.92C366.157,219.678 371.218,214.618 377.46,214.618L582.54,214.618C585.538,214.618 588.413,215.809 590.532,217.928C592.652,220.048 593.843,222.923 593.843,225.92L593.843,271.127C593.843,277.369 588.782,282.429 582.54,282.429L377.46,282.429C371.218,282.429 366.157,277.369 366.157,271.127L366.157,225.92Z" style="fill:rgb(241,194,50);"/>
        <path d="M395.391,242.124L395.391,223.046L402.578,223.046C403.849,223.046 404.818,223.103 405.484,223.217C406.422,223.374 407.208,223.676 407.844,224.124C408.479,224.561 408.99,225.176 409.375,225.967C409.76,226.749 409.953,227.613 409.953,228.561C409.953,230.186 409.432,231.561 408.391,232.686C407.359,233.811 405.495,234.374 402.797,234.374L397.906,234.374L397.906,242.124L395.391,242.124ZM397.906,232.108L402.844,232.108C404.479,232.108 405.635,231.806 406.312,231.202C407,230.598 407.344,229.743 407.344,228.639C407.344,227.837 407.141,227.155 406.734,226.592C406.339,226.019 405.807,225.644 405.141,225.467C404.724,225.353 403.943,225.296 402.797,225.296L397.906,225.296L397.906,232.108ZM412.842,242.124L412.842,228.296L414.951,228.296L414.951,230.389C415.483,229.41 415.977,228.764 416.436,228.452C416.894,228.139 417.394,227.983 417.936,227.983C418.727,227.983 419.53,228.238 420.342,228.749L419.545,230.921C418.972,230.577 418.399,230.405 417.826,230.405C417.316,230.405 416.852,230.561 416.436,230.874C416.03,231.176 415.743,231.603 415.576,232.155C415.316,232.988 415.186,233.9 415.186,234.889L415.186,242.124L412.842,242.124ZM431.203,237.671L433.625,237.967C433.24,239.384 432.531,240.483 431.5,241.264C430.469,242.046 429.151,242.436 427.547,242.436C425.526,242.436 423.922,241.816 422.734,240.577C421.547,239.327 420.953,237.577 420.953,235.327C420.953,233.004 421.552,231.202 422.75,229.921C423.948,228.629 425.505,227.983 427.422,227.983C429.266,227.983 430.771,228.613 431.937,229.874C433.115,231.134 433.703,232.905 433.703,235.186C433.703,235.322 433.698,235.53 433.687,235.811L423.375,235.811C423.469,237.332 423.901,238.499 424.672,239.311C425.443,240.113 426.406,240.514 427.562,240.514C428.417,240.514 429.146,240.29 429.75,239.842C430.365,239.384 430.849,238.66 431.203,237.671ZM423.516,233.889L431.234,233.889C431.13,232.723 430.833,231.848 430.344,231.264C429.594,230.368 428.625,229.921 427.437,229.921C426.365,229.921 425.458,230.28 424.719,230.999C423.99,231.717 423.589,232.681 423.516,233.889ZM435.653,236.389L435.653,234.046L442.856,234.046L442.856,236.389L435.653,236.389ZM445.436,247.421L445.436,228.296L447.577,228.296L447.577,230.092C448.077,229.394 448.644,228.868 449.28,228.514C449.915,228.16 450.686,227.983 451.592,227.983C452.769,227.983 453.806,228.29 454.702,228.905C455.608,229.509 456.29,230.363 456.749,231.467C457.207,232.572 457.436,233.785 457.436,235.108C457.436,236.525 457.181,237.801 456.67,238.936C456.17,240.061 455.436,240.926 454.467,241.53C453.499,242.134 452.483,242.436 451.42,242.436C450.639,242.436 449.936,242.275 449.311,241.952C448.696,241.618 448.186,241.197 447.78,240.686L447.78,247.421L445.436,247.421ZM447.561,235.296C447.561,237.066 447.92,238.379 448.639,239.233C449.368,240.087 450.243,240.514 451.264,240.514C452.306,240.514 453.196,240.077 453.936,239.202C454.676,238.316 455.045,236.947 455.045,235.092C455.045,233.332 454.681,232.014 453.952,231.139C453.233,230.264 452.368,229.827 451.358,229.827C450.368,229.827 449.488,230.296 448.717,231.233C447.946,232.16 447.561,233.514 447.561,235.296ZM460.245,242.124L460.245,228.296L462.355,228.296L462.355,230.389C462.886,229.41 463.381,228.764 463.839,228.452C464.297,228.139 464.797,227.983 465.339,227.983C466.131,227.983 466.933,228.238 467.745,228.749L466.948,230.921C466.376,230.577 465.803,230.405 465.23,230.405C464.719,230.405 464.256,230.561 463.839,230.874C463.433,231.176 463.146,231.603 462.98,232.155C462.719,232.988 462.589,233.9 462.589,234.889L462.589,242.124L460.245,242.124ZM468.278,235.217C468.278,232.655 468.987,230.759 470.403,229.53C471.591,228.499 473.039,227.983 474.747,227.983C476.653,227.983 478.205,228.608 479.403,229.858C480.612,231.098 481.216,232.816 481.216,235.014C481.216,236.796 480.95,238.197 480.419,239.217C479.888,240.238 479.112,241.03 478.091,241.592C477.07,242.155 475.955,242.436 474.747,242.436C472.82,242.436 471.258,241.816 470.06,240.577C468.872,239.337 468.278,237.551 468.278,235.217ZM470.685,235.217C470.685,236.988 471.07,238.316 471.841,239.202C472.612,240.077 473.58,240.514 474.747,240.514C475.914,240.514 476.883,240.072 477.653,239.186C478.424,238.301 478.81,236.952 478.81,235.139C478.81,233.431 478.419,232.134 477.638,231.249C476.867,230.363 475.903,229.921 474.747,229.921C473.58,229.921 472.612,230.363 471.841,231.249C471.07,232.124 470.685,233.447 470.685,235.217ZM492.994,237.061L495.291,237.358C495.041,238.952 494.395,240.197 493.353,241.092C492.322,241.988 491.051,242.436 489.541,242.436C487.645,242.436 486.124,241.822 484.978,240.592C483.832,239.353 483.26,237.577 483.26,235.264C483.26,233.775 483.504,232.473 483.994,231.358C484.494,230.233 485.249,229.389 486.26,228.827C487.27,228.264 488.369,227.983 489.556,227.983C491.056,227.983 492.28,228.363 493.228,229.124C494.187,229.884 494.801,230.962 495.072,232.358L492.791,232.717C492.572,231.79 492.187,231.092 491.635,230.624C491.093,230.155 490.431,229.921 489.65,229.921C488.463,229.921 487.499,230.342 486.76,231.186C486.03,232.03 485.666,233.368 485.666,235.202C485.666,237.056 486.02,238.405 486.728,239.249C487.437,240.092 488.364,240.514 489.51,240.514C490.437,240.514 491.207,240.233 491.822,239.671C492.437,239.098 492.827,238.228 492.994,237.061ZM506.76,237.671L509.181,237.967C508.796,239.384 508.088,240.483 507.056,241.264C506.025,242.046 504.707,242.436 503.103,242.436C501.082,242.436 499.478,241.816 498.291,240.577C497.103,239.327 496.51,237.577 496.51,235.327C496.51,233.004 497.109,231.202 498.306,229.921C499.504,228.629 501.062,227.983 502.978,227.983C504.822,227.983 506.327,228.613 507.494,229.874C508.671,231.134 509.26,232.905 509.26,235.186C509.26,235.322 509.254,235.53 509.244,235.811L498.931,235.811C499.025,237.332 499.457,238.499 500.228,239.311C500.999,240.113 501.963,240.514 503.119,240.514C503.973,240.514 504.702,240.29 505.306,239.842C505.921,239.384 506.405,238.66 506.76,237.671ZM499.072,233.889L506.791,233.889C506.687,232.723 506.39,231.848 505.9,231.264C505.15,230.368 504.181,229.921 502.994,229.921C501.921,229.921 501.015,230.28 500.275,230.999C499.546,231.717 499.145,232.681 499.072,233.889ZM511.178,237.999L513.506,237.639C513.631,238.566 513.991,239.28 514.584,239.78C515.178,240.269 516.012,240.514 517.084,240.514C518.157,240.514 518.954,240.296 519.475,239.858C519.996,239.421 520.256,238.905 520.256,238.311C520.256,237.78 520.027,237.363 519.569,237.061C519.246,236.853 518.449,236.587 517.178,236.264C515.459,235.827 514.267,235.452 513.6,235.139C512.933,234.827 512.428,234.389 512.084,233.827C511.741,233.264 511.569,232.644 511.569,231.967C511.569,231.353 511.709,230.785 511.991,230.264C512.282,229.733 512.668,229.296 513.147,228.952C513.512,228.681 514.006,228.452 514.631,228.264C515.267,228.077 515.944,227.983 516.663,227.983C517.746,227.983 518.699,228.139 519.522,228.452C520.345,228.764 520.949,229.191 521.334,229.733C521.73,230.264 522.001,230.978 522.147,231.874L519.85,232.186C519.746,231.467 519.444,230.91 518.944,230.514C518.444,230.118 517.741,229.921 516.834,229.921C515.762,229.921 514.991,230.098 514.522,230.452C514.064,230.806 513.834,231.223 513.834,231.702C513.834,232.004 513.933,232.275 514.131,232.514C514.319,232.764 514.616,232.973 515.022,233.139C515.262,233.233 515.954,233.436 517.1,233.749C518.756,234.186 519.913,234.546 520.569,234.827C521.225,235.108 521.736,235.519 522.1,236.061C522.475,236.592 522.663,237.259 522.663,238.061C522.663,238.842 522.433,239.582 521.975,240.28C521.527,240.967 520.871,241.499 520.006,241.874C519.152,242.249 518.183,242.436 517.1,242.436C515.298,242.436 513.923,242.066 512.975,241.327C512.038,240.577 511.439,239.467 511.178,237.999ZM524.506,237.999L526.834,237.639C526.959,238.566 527.319,239.28 527.913,239.78C528.506,240.269 529.34,240.514 530.413,240.514C531.486,240.514 532.282,240.296 532.803,239.858C533.324,239.421 533.584,238.905 533.584,238.311C533.584,237.78 533.355,237.363 532.897,237.061C532.574,236.853 531.777,236.587 530.506,236.264C528.788,235.827 527.595,235.452 526.928,235.139C526.262,234.827 525.756,234.389 525.413,233.827C525.069,233.264 524.897,232.644 524.897,231.967C524.897,231.353 525.038,230.785 525.319,230.264C525.611,229.733 525.996,229.296 526.475,228.952C526.84,228.681 527.334,228.452 527.959,228.264C528.595,228.077 529.272,227.983 529.991,227.983C531.074,227.983 532.027,228.139 532.85,228.452C533.673,228.764 534.277,229.191 534.663,229.733C535.058,230.264 535.329,230.978 535.475,231.874L533.178,232.186C533.074,231.467 532.772,230.91 532.272,230.514C531.772,230.118 531.069,229.921 530.163,229.921C529.09,229.921 528.319,230.098 527.85,230.452C527.392,230.806 527.163,231.223 527.163,231.702C527.163,232.004 527.262,232.275 527.459,232.514C527.647,232.764 527.944,232.973 528.35,233.139C528.59,233.233 529.282,233.436 530.428,233.749C532.084,234.186 533.241,234.546 533.897,234.827C534.553,235.108 535.064,235.519 535.428,236.061C535.803,236.592 535.991,237.259 535.991,238.061C535.991,238.842 535.762,239.582 535.303,240.28C534.855,240.967 534.199,241.499 533.334,241.874C532.48,242.249 531.512,242.436 530.428,242.436C528.626,242.436 527.251,242.066 526.303,241.327C525.366,240.577 524.767,239.467 524.506,237.999ZM548.241,237.671L550.663,237.967C550.277,239.384 549.569,240.483 548.538,241.264C547.506,242.046 546.189,242.436 544.584,242.436C542.564,242.436 540.959,241.816 539.772,240.577C538.584,239.327 537.991,237.577 537.991,235.327C537.991,233.004 538.59,231.202 539.788,229.921C540.986,228.629 542.543,227.983 544.459,227.983C546.303,227.983 547.808,228.613 548.975,229.874C550.152,231.134 550.741,232.905 550.741,235.186C550.741,235.322 550.736,235.53 550.725,235.811L540.413,235.811C540.506,237.332 540.939,238.499 541.709,239.311C542.48,240.113 543.444,240.514 544.6,240.514C545.454,240.514 546.183,240.29 546.788,239.842C547.402,239.384 547.887,238.66 548.241,237.671ZM540.553,233.889L548.272,233.889C548.168,232.723 547.871,231.848 547.381,231.264C546.631,230.368 545.663,229.921 544.475,229.921C543.402,229.921 542.496,230.28 541.756,230.999C541.027,231.717 540.626,232.681 540.553,233.889ZM562.566,242.124L562.566,240.374C561.691,241.749 560.404,242.436 558.706,242.436C557.602,242.436 556.587,242.134 555.659,241.53C554.743,240.915 554.029,240.066 553.519,238.983C553.008,237.889 552.753,236.639 552.753,235.233C552.753,233.848 552.982,232.592 553.441,231.467C553.909,230.342 554.602,229.483 555.519,228.889C556.435,228.285 557.462,227.983 558.597,227.983C559.43,227.983 560.17,228.16 560.816,228.514C561.472,228.868 562.003,229.327 562.409,229.889L562.409,223.046L564.753,223.046L564.753,242.124L562.566,242.124ZM555.159,235.233C555.159,236.993 555.534,238.316 556.284,239.202C557.034,240.077 557.915,240.514 558.925,240.514C559.946,240.514 560.816,240.098 561.534,239.264C562.253,238.421 562.613,237.139 562.613,235.421C562.613,233.525 562.248,232.134 561.519,231.249C560.79,230.363 559.889,229.921 558.816,229.921C557.784,229.921 556.915,230.348 556.206,231.202C555.508,232.056 555.159,233.4 555.159,235.233Z" style="fill-rule:nonzero;"/>
        <path d="M464.778,274.124L464.778,272.374C463.903,273.749 462.617,274.436 460.919,274.436C459.815,274.436 458.799,274.134 457.872,273.53C456.955,272.915 456.242,272.066 455.731,270.983C455.221,269.889 454.966,268.639 454.966,267.233C454.966,265.848 455.195,264.592 455.653,263.467C456.122,262.342 456.815,261.483 457.731,260.889C458.648,260.285 459.674,259.983 460.81,259.983C461.643,259.983 462.383,260.16 463.028,260.514C463.685,260.868 464.216,261.327 464.622,261.889L464.622,255.046L466.966,255.046L466.966,274.124L464.778,274.124ZM457.372,267.233C457.372,268.993 457.747,270.316 458.497,271.202C459.247,272.077 460.127,272.514 461.138,272.514C462.159,272.514 463.028,272.098 463.747,271.264C464.466,270.421 464.825,269.139 464.825,267.421C464.825,265.525 464.461,264.134 463.731,263.249C463.002,262.363 462.101,261.921 461.028,261.921C459.997,261.921 459.127,262.348 458.419,263.202C457.721,264.056 457.372,265.4 457.372,267.233ZM479.666,272.421C478.791,273.16 477.952,273.681 477.15,273.983C476.348,274.285 475.489,274.436 474.572,274.436C473.051,274.436 471.885,274.066 471.072,273.327C470.26,272.587 469.853,271.639 469.853,270.483C469.853,269.806 470.004,269.186 470.306,268.624C470.619,268.061 471.025,267.613 471.525,267.28C472.025,266.936 472.588,266.681 473.213,266.514C473.671,266.389 474.364,266.269 475.291,266.155C477.176,265.936 478.567,265.671 479.463,265.358C479.473,265.035 479.478,264.827 479.478,264.733C479.478,263.785 479.26,263.113 478.822,262.717C478.218,262.186 477.327,261.921 476.15,261.921C475.046,261.921 474.228,262.118 473.697,262.514C473.176,262.9 472.791,263.582 472.541,264.561L470.244,264.249C470.452,263.269 470.796,262.478 471.275,261.874C471.754,261.269 472.442,260.806 473.338,260.483C474.244,260.15 475.291,259.983 476.478,259.983C477.666,259.983 478.624,260.124 479.353,260.405C480.093,260.686 480.635,261.035 480.978,261.452C481.332,261.868 481.577,262.4 481.713,263.046C481.796,263.441 481.838,264.16 481.838,265.202L481.838,268.327C481.838,270.504 481.885,271.884 481.978,272.467C482.082,273.04 482.28,273.592 482.572,274.124L480.135,274.124C479.885,273.634 479.728,273.066 479.666,272.421ZM479.463,267.186C478.619,267.53 477.343,267.827 475.635,268.077C474.676,268.212 473.994,268.368 473.588,268.546C473.192,268.712 472.885,268.962 472.666,269.296C472.457,269.629 472.353,270.004 472.353,270.421C472.353,271.046 472.588,271.566 473.056,271.983C473.525,272.4 474.218,272.608 475.135,272.608C476.03,272.608 476.827,272.41 477.525,272.014C478.234,271.618 478.754,271.077 479.088,270.389C479.338,269.858 479.463,269.077 479.463,268.046L479.463,267.186ZM490.584,272.03L490.913,274.092C490.256,274.238 489.668,274.311 489.147,274.311C488.303,274.311 487.647,274.176 487.178,273.905C486.709,273.634 486.376,273.28 486.178,272.842C485.991,272.405 485.897,271.483 485.897,270.077L485.897,262.124L484.178,262.124L484.178,260.296L485.897,260.296L485.897,256.874L488.225,255.467L488.225,260.296L490.584,260.296L490.584,262.124L488.225,262.124L488.225,270.202C488.225,270.868 488.267,271.301 488.35,271.499C488.433,271.686 488.569,271.837 488.756,271.952C488.944,272.066 489.209,272.124 489.553,272.124C489.814,272.124 490.157,272.092 490.584,272.03ZM501.897,272.421C501.022,273.16 500.183,273.681 499.381,273.983C498.579,274.285 497.72,274.436 496.803,274.436C495.282,274.436 494.115,274.066 493.303,273.327C492.49,272.587 492.084,271.639 492.084,270.483C492.084,269.806 492.235,269.186 492.537,268.624C492.85,268.061 493.256,267.613 493.756,267.28C494.256,266.936 494.819,266.681 495.444,266.514C495.902,266.389 496.595,266.269 497.522,266.155C499.407,265.936 500.798,265.671 501.694,265.358C501.704,265.035 501.709,264.827 501.709,264.733C501.709,263.785 501.49,263.113 501.053,262.717C500.449,262.186 499.558,261.921 498.381,261.921C497.277,261.921 496.459,262.118 495.928,262.514C495.407,262.9 495.022,263.582 494.772,264.561L492.475,264.249C492.683,263.269 493.027,262.478 493.506,261.874C493.985,261.269 494.673,260.806 495.569,260.483C496.475,260.15 497.522,259.983 498.709,259.983C499.897,259.983 500.855,260.124 501.584,260.405C502.324,260.686 502.865,261.035 503.209,261.452C503.563,261.868 503.808,262.4 503.944,263.046C504.027,263.441 504.069,264.16 504.069,265.202L504.069,268.327C504.069,270.504 504.115,271.884 504.209,272.467C504.313,273.04 504.511,273.592 504.803,274.124L502.365,274.124C502.115,273.634 501.959,273.066 501.897,272.421ZM501.694,267.186C500.85,267.53 499.574,267.827 497.865,268.077C496.907,268.212 496.225,268.368 495.819,268.546C495.423,268.712 495.115,268.962 494.897,269.296C494.688,269.629 494.584,270.004 494.584,270.421C494.584,271.046 494.819,271.566 495.287,271.983C495.756,272.4 496.449,272.608 497.365,272.608C498.261,272.608 499.058,272.41 499.756,272.014C500.464,271.618 500.985,271.077 501.319,270.389C501.569,269.858 501.694,269.077 501.694,268.046L501.694,267.186Z" style="fill-rule:nonzero;"/>
        <path d="M281.205,452.708C281.205,448.26 284.81,444.655 289.257,444.655L420.365,444.655C422.5,444.655 424.549,445.503 426.059,447.013C427.569,448.524 428.417,450.572 428.417,452.708L428.417,484.917C428.417,489.365 424.812,492.97 420.365,492.97L289.257,492.97C284.81,492.97 281.205,489.365 281.205,484.917L281.205,452.708Z" style="fill:rgb(241,194,50);"/>
        <path d="M320.494,478.412L320.494,459.334L324.291,459.334L328.807,472.834C329.224,474.095 329.526,475.037 329.713,475.662C329.932,474.975 330.271,473.954 330.729,472.6L335.307,459.334L338.698,459.334L338.698,478.412L336.26,478.412L336.26,462.444L330.713,478.412L328.448,478.412L322.916,462.162L322.916,478.412L320.494,478.412ZM341.606,471.506C341.606,468.944 342.314,467.048 343.731,465.819C344.918,464.787 346.366,464.272 348.074,464.272C349.981,464.272 351.533,464.897 352.731,466.147C353.939,467.386 354.543,469.105 354.543,471.303C354.543,473.084 354.277,474.485 353.746,475.506C353.215,476.527 352.439,477.319 351.418,477.881C350.397,478.444 349.283,478.725 348.074,478.725C346.147,478.725 344.585,478.105 343.387,476.865C342.199,475.626 341.606,473.839 341.606,471.506ZM344.012,471.506C344.012,473.277 344.397,474.605 345.168,475.49C345.939,476.365 346.908,476.803 348.074,476.803C349.241,476.803 350.21,476.36 350.981,475.475C351.751,474.589 352.137,473.24 352.137,471.428C352.137,469.72 351.746,468.423 350.965,467.537C350.194,466.652 349.231,466.209 348.074,466.209C346.908,466.209 345.939,466.652 345.168,467.537C344.397,468.412 344.012,469.735 344.012,471.506ZM366.259,478.412L366.259,476.662C365.384,478.037 364.097,478.725 362.399,478.725C361.295,478.725 360.28,478.423 359.352,477.819C358.436,477.204 357.722,476.355 357.212,475.272C356.701,474.178 356.446,472.928 356.446,471.522C356.446,470.136 356.675,468.881 357.134,467.756C357.602,466.631 358.295,465.772 359.212,465.178C360.128,464.574 361.155,464.272 362.29,464.272C363.123,464.272 363.863,464.449 364.509,464.803C365.165,465.157 365.696,465.615 366.102,466.178L366.102,459.334L368.446,459.334L368.446,478.412L366.259,478.412ZM358.852,471.522C358.852,473.282 359.227,474.605 359.977,475.49C360.727,476.365 361.608,476.803 362.618,476.803C363.639,476.803 364.509,476.386 365.227,475.553C365.946,474.709 366.306,473.428 366.306,471.709C366.306,469.813 365.941,468.423 365.212,467.537C364.483,466.652 363.582,466.209 362.509,466.209C361.477,466.209 360.608,466.636 359.899,467.49C359.201,468.345 358.852,469.688 358.852,471.522ZM381.584,473.959L384.005,474.256C383.62,475.673 382.912,476.772 381.88,477.553C380.849,478.334 379.532,478.725 377.927,478.725C375.907,478.725 374.302,478.105 373.115,476.865C371.927,475.615 371.334,473.865 371.334,471.615C371.334,469.293 371.933,467.49 373.13,466.209C374.328,464.918 375.886,464.272 377.802,464.272C379.646,464.272 381.151,464.902 382.318,466.162C383.495,467.423 384.084,469.194 384.084,471.475C384.084,471.61 384.078,471.819 384.068,472.1L373.755,472.1C373.849,473.621 374.282,474.787 375.052,475.6C375.823,476.402 376.787,476.803 377.943,476.803C378.797,476.803 379.526,476.579 380.13,476.131C380.745,475.673 381.229,474.949 381.584,473.959ZM373.896,470.178L381.615,470.178C381.511,469.011 381.214,468.136 380.724,467.553C379.974,466.657 379.005,466.209 377.818,466.209C376.745,466.209 375.839,466.569 375.099,467.287C374.37,468.006 373.969,468.97 373.896,470.178ZM386.893,478.412L386.893,459.334L389.237,459.334L389.237,478.412L386.893,478.412Z" style="fill-rule:nonzero;"/>
        <path d="M135.058,618.813C135.058,614.365 138.663,610.76 143.11,610.76L274.218,610.76C276.353,610.76 278.402,611.608 279.912,613.118C281.422,614.629 282.27,616.677 282.27,618.813L282.27,651.022C282.27,655.469 278.665,659.075 274.218,659.075L143.11,659.075C138.663,659.075 135.058,655.469 135.058,651.022L135.058,618.813Z" style="fill:rgb(241,194,50);"/>
        <path d="M161.958,644.517L161.958,625.439L174.833,625.439L174.833,627.689L164.489,627.689L164.489,633.595L173.442,633.595L173.442,635.845L164.489,635.845L164.489,644.517L161.958,644.517ZM177.819,628.127L177.819,625.439L180.162,625.439L180.162,628.127L177.819,628.127ZM177.819,644.517L177.819,630.689L180.162,630.689L180.162,644.517L177.819,644.517ZM183.303,645.658L185.585,646.002C185.678,646.7 185.944,647.21 186.382,647.533C186.954,647.97 187.746,648.189 188.757,648.189C189.84,648.189 190.673,647.97 191.257,647.533C191.85,647.106 192.251,646.502 192.46,645.72C192.585,645.241 192.642,644.236 192.632,642.705C191.611,643.913 190.335,644.517 188.803,644.517C186.908,644.517 185.439,643.835 184.397,642.47C183.355,641.095 182.835,639.45 182.835,637.533C182.835,636.21 183.074,634.991 183.553,633.877C184.033,632.762 184.725,631.903 185.632,631.299C186.538,630.684 187.6,630.377 188.819,630.377C190.454,630.377 191.798,631.038 192.85,632.361L192.85,630.689L195.022,630.689L195.022,642.642C195.022,644.799 194.803,646.325 194.366,647.22C193.928,648.116 193.23,648.825 192.272,649.345C191.324,649.866 190.158,650.127 188.772,650.127C187.126,650.127 185.793,649.757 184.772,649.017C183.762,648.278 183.272,647.158 183.303,645.658ZM185.241,637.361C185.241,639.174 185.6,640.496 186.319,641.33C187.038,642.163 187.939,642.58 189.022,642.58C190.105,642.58 191.012,642.168 191.741,641.345C192.47,640.512 192.835,639.21 192.835,637.439C192.835,635.741 192.46,634.465 191.71,633.611C190.96,632.746 190.053,632.314 188.991,632.314C187.949,632.314 187.064,632.741 186.335,633.595C185.605,634.439 185.241,635.694 185.241,637.361ZM207.613,644.517L207.613,642.486C206.54,644.049 205.081,644.83 203.238,644.83C202.415,644.83 201.649,644.674 200.941,644.361C200.232,644.049 199.706,643.658 199.363,643.189C199.029,642.71 198.79,642.127 198.644,641.439C198.55,640.981 198.503,640.252 198.503,639.252L198.503,630.689L200.847,630.689L200.847,638.361C200.847,639.58 200.894,640.403 200.988,640.83C201.134,641.444 201.446,641.929 201.925,642.283C202.404,642.637 202.993,642.814 203.691,642.814C204.399,642.814 205.061,642.637 205.675,642.283C206.29,641.918 206.722,641.429 206.972,640.814C207.232,640.189 207.363,639.283 207.363,638.095L207.363,630.689L209.706,630.689L209.706,644.517L207.613,644.517ZM213.36,644.517L213.36,630.689L215.469,630.689L215.469,632.783C216,631.804 216.495,631.158 216.953,630.845C217.412,630.533 217.912,630.377 218.453,630.377C219.245,630.377 220.047,630.632 220.86,631.142L220.063,633.314C219.49,632.97 218.917,632.799 218.344,632.799C217.833,632.799 217.37,632.955 216.953,633.267C216.547,633.569 216.261,633.996 216.094,634.549C215.833,635.382 215.703,636.293 215.703,637.283L215.703,644.517L213.36,644.517ZM231.721,640.064L234.142,640.361C233.757,641.778 233.049,642.877 232.017,643.658C230.986,644.439 229.669,644.83 228.064,644.83C226.044,644.83 224.439,644.21 223.252,642.97C222.064,641.72 221.471,639.97 221.471,637.72C221.471,635.398 222.07,633.595 223.267,632.314C224.465,631.023 226.023,630.377 227.939,630.377C229.783,630.377 231.288,631.007 232.455,632.267C233.632,633.528 234.221,635.299 234.221,637.58C234.221,637.715 234.215,637.924 234.205,638.205L223.892,638.205C223.986,639.726 224.419,640.892 225.189,641.705C225.96,642.507 226.924,642.908 228.08,642.908C228.934,642.908 229.663,642.684 230.267,642.236C230.882,641.778 231.366,641.054 231.721,640.064ZM224.033,636.283L231.752,636.283C231.648,635.116 231.351,634.241 230.861,633.658C230.111,632.762 229.142,632.314 227.955,632.314C226.882,632.314 225.976,632.674 225.236,633.392C224.507,634.111 224.106,635.075 224.033,636.283ZM252.67,644.517L250.327,644.517L250.327,629.595C249.754,630.127 249.009,630.663 248.092,631.205C247.186,631.736 246.368,632.137 245.639,632.408L245.639,630.142C246.952,629.528 248.097,628.783 249.077,627.908C250.056,627.033 250.748,626.184 251.155,625.361L252.67,625.361L252.67,644.517Z" style="fill-rule:nonzero;"/>
        <path d="M406.394,618.813C406.394,614.365 409.999,610.76 414.446,610.76L545.554,610.76C547.689,610.76 549.738,611.608 551.248,613.118C552.758,614.629 553.606,616.677 553.606,618.813L553.606,651.022C553.606,655.469 550.001,659.075 545.554,659.075L414.446,659.075C409.999,659.075 406.394,655.469 406.394,651.022L406.394,618.813Z" style="fill:rgb(241,194,50);"/>
        <path d="M433.294,644.517L433.294,625.439L446.169,625.439L446.169,627.689L435.825,627.689L435.825,633.595L444.778,633.595L444.778,635.845L435.825,635.845L435.825,644.517L433.294,644.517ZM449.155,628.127L449.155,625.439L451.498,625.439L451.498,628.127L449.155,628.127ZM449.155,644.517L449.155,630.689L451.498,630.689L451.498,644.517L449.155,644.517ZM454.639,645.658L456.921,646.002C457.014,646.7 457.28,647.21 457.717,647.533C458.29,647.97 459.082,648.189 460.092,648.189C461.176,648.189 462.009,647.97 462.592,647.533C463.186,647.106 463.587,646.502 463.796,645.72C463.921,645.241 463.978,644.236 463.967,642.705C462.947,643.913 461.671,644.517 460.139,644.517C458.244,644.517 456.775,643.835 455.733,642.47C454.691,641.095 454.171,639.45 454.171,637.533C454.171,636.21 454.41,634.991 454.889,633.877C455.369,632.762 456.061,631.903 456.967,631.299C457.874,630.684 458.936,630.377 460.155,630.377C461.79,630.377 463.134,631.038 464.186,632.361L464.186,630.689L466.358,630.689L466.358,642.642C466.358,644.799 466.139,646.325 465.702,647.22C465.264,648.116 464.566,648.825 463.608,649.345C462.66,649.866 461.494,650.127 460.108,650.127C458.462,650.127 457.129,649.757 456.108,649.017C455.098,648.278 454.608,647.158 454.639,645.658ZM456.577,637.361C456.577,639.174 456.936,640.496 457.655,641.33C458.374,642.163 459.275,642.58 460.358,642.58C461.441,642.58 462.348,642.168 463.077,641.345C463.806,640.512 464.171,639.21 464.171,637.439C464.171,635.741 463.796,634.465 463.046,633.611C462.296,632.746 461.389,632.314 460.327,632.314C459.285,632.314 458.4,632.741 457.671,633.595C456.941,634.439 456.577,635.694 456.577,637.361ZM478.949,644.517L478.949,642.486C477.876,644.049 476.417,644.83 474.574,644.83C473.751,644.83 472.985,644.674 472.277,644.361C471.568,644.049 471.042,643.658 470.699,643.189C470.365,642.71 470.126,642.127 469.98,641.439C469.886,640.981 469.839,640.252 469.839,639.252L469.839,630.689L472.183,630.689L472.183,638.361C472.183,639.58 472.23,640.403 472.324,640.83C472.469,641.444 472.782,641.929 473.261,642.283C473.74,642.637 474.329,642.814 475.027,642.814C475.735,642.814 476.397,642.637 477.011,642.283C477.626,641.918 478.058,641.429 478.308,640.814C478.568,640.189 478.699,639.283 478.699,638.095L478.699,630.689L481.042,630.689L481.042,644.517L478.949,644.517ZM484.695,644.517L484.695,630.689L486.805,630.689L486.805,632.783C487.336,631.804 487.831,631.158 488.289,630.845C488.748,630.533 489.248,630.377 489.789,630.377C490.581,630.377 491.383,630.632 492.195,631.142L491.399,633.314C490.826,632.97 490.253,632.799 489.68,632.799C489.169,632.799 488.706,632.955 488.289,633.267C487.883,633.569 487.597,633.996 487.43,634.549C487.169,635.382 487.039,636.293 487.039,637.283L487.039,644.517L484.695,644.517ZM503.057,640.064L505.478,640.361C505.093,641.778 504.385,642.877 503.353,643.658C502.322,644.439 501.004,644.83 499.4,644.83C497.379,644.83 495.775,644.21 494.588,642.97C493.4,641.72 492.807,639.97 492.807,637.72C492.807,635.398 493.406,633.595 494.603,632.314C495.801,631.023 497.359,630.377 499.275,630.377C501.119,630.377 502.624,631.007 503.791,632.267C504.968,633.528 505.557,635.299 505.557,637.58C505.557,637.715 505.551,637.924 505.541,638.205L495.228,638.205C495.322,639.726 495.754,640.892 496.525,641.705C497.296,642.507 498.26,642.908 499.416,642.908C500.27,642.908 500.999,642.684 501.603,642.236C502.218,641.778 502.702,641.054 503.057,640.064ZM495.369,636.283L503.088,636.283C502.984,635.116 502.687,634.241 502.197,633.658C501.447,632.762 500.478,632.314 499.291,632.314C498.218,632.314 497.312,632.674 496.572,633.392C495.843,634.111 495.442,635.075 495.369,636.283ZM527.491,642.267L527.491,644.517L514.881,644.517C514.86,643.955 514.949,643.413 515.147,642.892C515.47,642.028 515.985,641.179 516.694,640.345C517.402,639.512 518.423,638.554 519.756,637.47C521.829,635.762 523.23,634.413 523.959,633.424C524.689,632.424 525.053,631.486 525.053,630.611C525.053,629.674 524.72,628.887 524.053,628.252C523.397,627.616 522.532,627.299 521.459,627.299C520.334,627.299 519.433,627.637 518.756,628.314C518.079,628.991 517.735,629.929 517.725,631.127L515.319,630.877C515.485,629.085 516.105,627.72 517.178,626.783C518.251,625.835 519.694,625.361 521.506,625.361C523.34,625.361 524.787,625.871 525.85,626.892C526.923,627.903 527.459,629.158 527.459,630.658C527.459,631.418 527.303,632.168 526.991,632.908C526.678,633.648 526.157,634.424 525.428,635.236C524.709,636.049 523.506,637.168 521.819,638.595C520.423,639.773 519.522,640.575 519.116,641.002C518.72,641.418 518.392,641.84 518.131,642.267L527.491,642.267Z" style="fill-rule:nonzero;"/>
        <path d="M677.73,618.813C677.73,614.365 681.335,610.76 685.782,610.76L816.89,610.76C819.025,610.76 821.074,611.608 822.584,613.118C824.094,614.629 824.942,616.677 824.942,618.813L824.942,651.022C824.942,655.469 821.337,659.075 816.89,659.075L685.782,659.075C681.335,659.075 677.73,655.469 677.73,651.022L677.73,618.813Z" style="fill:rgb(241,194,50);"/>
        <path d="M704.63,644.517L704.63,625.439L717.505,625.439L717.505,627.689L707.161,627.689L707.161,633.595L716.114,633.595L716.114,635.845L707.161,635.845L707.161,644.517L704.63,644.517ZM720.491,628.127L720.491,625.439L722.834,625.439L722.834,628.127L720.491,628.127ZM720.491,644.517L720.491,630.689L722.834,630.689L722.834,644.517L720.491,644.517ZM725.975,645.658L728.257,646.002C728.35,646.7 728.616,647.21 729.053,647.533C729.626,647.97 730.418,648.189 731.428,648.189C732.512,648.189 733.345,647.97 733.928,647.533C734.522,647.106 734.923,646.502 735.132,645.72C735.257,645.241 735.314,644.236 735.303,642.705C734.283,643.913 733.007,644.517 731.475,644.517C729.579,644.517 728.111,643.835 727.069,642.47C726.027,641.095 725.507,639.45 725.507,637.533C725.507,636.21 725.746,634.991 726.225,633.877C726.704,632.762 727.397,631.903 728.303,631.299C729.21,630.684 730.272,630.377 731.491,630.377C733.126,630.377 734.47,631.038 735.522,632.361L735.522,630.689L737.694,630.689L737.694,642.642C737.694,644.799 737.475,646.325 737.038,647.22C736.6,648.116 735.902,648.825 734.944,649.345C733.996,649.866 732.829,650.127 731.444,650.127C729.798,650.127 728.465,649.757 727.444,649.017C726.434,648.278 725.944,647.158 725.975,645.658ZM727.913,637.361C727.913,639.174 728.272,640.496 728.991,641.33C729.71,642.163 730.611,642.58 731.694,642.58C732.777,642.58 733.684,642.168 734.413,641.345C735.142,640.512 735.507,639.21 735.507,637.439C735.507,635.741 735.132,634.465 734.382,633.611C733.632,632.746 732.725,632.314 731.663,632.314C730.621,632.314 729.736,632.741 729.007,633.595C728.277,634.439 727.913,635.694 727.913,637.361ZM750.285,644.517L750.285,642.486C749.212,644.049 747.753,644.83 745.91,644.83C745.087,644.83 744.321,644.674 743.613,644.361C742.904,644.049 742.378,643.658 742.035,643.189C741.701,642.71 741.462,642.127 741.316,641.439C741.222,640.981 741.175,640.252 741.175,639.252L741.175,630.689L743.519,630.689L743.519,638.361C743.519,639.58 743.566,640.403 743.66,640.83C743.805,641.444 744.118,641.929 744.597,642.283C745.076,642.637 745.665,642.814 746.363,642.814C747.071,642.814 747.733,642.637 748.347,642.283C748.962,641.918 749.394,641.429 749.644,640.814C749.904,640.189 750.035,639.283 750.035,638.095L750.035,630.689L752.378,630.689L752.378,644.517L750.285,644.517ZM756.031,644.517L756.031,630.689L758.141,630.689L758.141,632.783C758.672,631.804 759.167,631.158 759.625,630.845C760.083,630.533 760.583,630.377 761.125,630.377C761.917,630.377 762.719,630.632 763.531,631.142L762.735,633.314C762.162,632.97 761.589,632.799 761.016,632.799C760.505,632.799 760.042,632.955 759.625,633.267C759.219,633.569 758.932,633.996 758.766,634.549C758.505,635.382 758.375,636.293 758.375,637.283L758.375,644.517L756.031,644.517ZM774.392,640.064L776.814,640.361C776.429,641.778 775.721,642.877 774.689,643.658C773.658,644.439 772.34,644.83 770.736,644.83C768.715,644.83 767.111,644.21 765.924,642.97C764.736,641.72 764.142,639.97 764.142,637.72C764.142,635.398 764.741,633.595 765.939,632.314C767.137,631.023 768.695,630.377 770.611,630.377C772.455,630.377 773.96,631.007 775.127,632.267C776.304,633.528 776.892,635.299 776.892,637.58C776.892,637.715 776.887,637.924 776.877,638.205L766.564,638.205C766.658,639.726 767.09,640.892 767.861,641.705C768.632,642.507 769.596,642.908 770.752,642.908C771.606,642.908 772.335,642.684 772.939,642.236C773.554,641.778 774.038,641.054 774.392,640.064ZM766.705,636.283L774.424,636.283C774.32,635.116 774.023,634.241 773.533,633.658C772.783,632.762 771.814,632.314 770.627,632.314C769.554,632.314 768.648,632.674 767.908,633.392C767.179,634.111 766.778,635.075 766.705,636.283ZM786.53,639.486L788.873,639.174C789.134,640.496 789.587,641.455 790.233,642.049C790.889,642.632 791.681,642.924 792.608,642.924C793.702,642.924 794.629,642.543 795.389,641.783C796.149,641.012 796.53,640.064 796.53,638.939C796.53,637.856 796.175,636.965 795.467,636.267C794.769,635.569 793.879,635.22 792.795,635.22C792.358,635.22 791.806,635.309 791.139,635.486L791.405,633.424C791.561,633.444 791.686,633.455 791.78,633.455C792.78,633.455 793.675,633.194 794.467,632.674C795.269,632.153 795.67,631.351 795.67,630.267C795.67,629.403 795.379,628.689 794.795,628.127C794.222,627.564 793.472,627.283 792.545,627.283C791.639,627.283 790.879,627.569 790.264,628.142C789.66,628.715 789.274,629.575 789.108,630.72L786.764,630.299C787.045,628.736 787.691,627.523 788.702,626.658C789.722,625.793 790.988,625.361 792.498,625.361C793.54,625.361 794.498,625.585 795.373,626.033C796.248,626.481 796.915,627.09 797.373,627.861C797.842,628.632 798.077,629.45 798.077,630.314C798.077,631.137 797.853,631.887 797.405,632.564C796.967,633.241 796.316,633.783 795.452,634.189C796.577,634.45 797.452,634.991 798.077,635.814C798.702,636.627 799.014,637.648 799.014,638.877C799.014,640.543 798.405,641.96 797.186,643.127C795.978,644.283 794.446,644.861 792.592,644.861C790.915,644.861 789.524,644.361 788.42,643.361C787.316,642.361 786.686,641.069 786.53,639.486Z" style="fill-rule:nonzero;"/>
        <path d="M480,99.635L480,129.493" style="fill:none;"/>
        <path d="M480,99.635L480,117.493" style="fill:none;stroke:rgb(84,84,84);stroke-width:2px;"/>
        <path d="M476.697,117.493L480,126.57L483.303,117.493L476.697,117.493Z" style="fill:rgb(84,84,84);stroke:rgb(84,84,84);stroke-width:2px;stroke-linejoin:miter;"/>
        <path d="M480,184.765L480,214.623" style="fill:none;"/>
        <path d="M480,184.765L480,202.623" style="fill:none;stroke:rgb(84,84,84);stroke-width:2px;"/>
        <path d="M476.697,202.623L480,211.7L483.303,202.623L476.697,202.623Z" style="fill:rgb(84,84,84);stroke:rgb(84,84,84);stroke-width:2px;stroke-linejoin:miter;"/>
        <path d="M480,282.429L751.339,527.374" style="fill:none;"/>
        <path d="M480,282.429L742.431,519.333" style="fill:none;stroke:rgb(84,84,84);stroke-width:2px;"/>
        <path d="M740.218,521.785L749.168,525.415L744.645,516.881L740.218,521.785Z" style="fill:rgb(84,84,84);stroke:rgb(84,84,84);stroke-width:2px;stroke-linejoin:miter;"/>
        <path d="M480,282.429L354.803,311.941" style="fill:none;"/>
        <path d="M480,282.429L366.483,309.188" style="fill:none;stroke:rgb(84,84,84);stroke-width:2px;"/>
        <path d="M365.725,305.972L357.649,311.27L367.241,312.403L365.725,305.972Z" style="fill:rgb(84,84,84);stroke:rgb(84,84,84);stroke-width:2px;stroke-linejoin:miter;"/>
        <path d="M354.811,415.133L354.811,444.644" style="fill:none;"/>
        <path d="M354.811,415.133L354.811,432.644" style="fill:none;stroke:rgb(84,84,84);stroke-width:2px;"/>
        <path d="M351.508,432.644L354.811,441.721L358.115,432.644L351.508,432.644Z" style="fill:rgb(84,84,84);stroke:rgb(84,84,84);stroke-width:2px;stroke-linejoin:miter;"/>
        <path d="M354.811,492.97L208.669,527.364" style="fill:none;"/>
        <path d="M354.811,492.97L220.35,524.615" style="fill:none;stroke:rgb(84,84,84);stroke-width:2px;"/>
        <path d="M219.593,521.399L211.515,526.694L221.107,527.83L219.593,521.399Z" style="fill:rgb(84,84,84);stroke:rgb(84,84,84);stroke-width:2px;stroke-linejoin:miter;"/>
        <path d="M354.811,492.97L480.008,527.364" style="fill:none;"/>
        <path d="M354.811,492.97L468.437,524.185" style="fill:none;stroke:rgb(84,84,84);stroke-width:2px;"/>
        <path d="M467.561,527.37L477.189,526.589L469.312,520.999L467.561,527.37Z" style="fill:rgb(84,84,84);stroke:rgb(84,84,84);stroke-width:2px;stroke-linejoin:miter;"/>
        <path d="M208.664,582.643L208.664,610.769" style="fill:none;"/>
        <path d="M208.664,582.643L208.664,598.769" style="fill:none;stroke:rgb(84,84,84);stroke-width:2px;"/>
        <path d="M205.361,598.769L208.664,607.845L211.968,598.769L205.361,598.769Z" style="fill:rgb(84,84,84);stroke:rgb(84,84,84);stroke-width:2px;stroke-linejoin:miter;"/>
        <path d="M480,582.643L480,610.769" style="fill:none;"/>
        <path d="M480,582.643L480,598.769" style="fill:none;stroke:rgb(84,84,84);stroke-width:2px;"/>
        <path d="M476.697,598.769L480,607.845L483.303,598.769L476.697,598.769Z" style="fill:rgb(84,84,84);stroke:rgb(84,84,84);stroke-width:2px;stroke-linejoin:miter;"/>
        <path d="M751.336,582.643L751.336,610.769" style="fill:none;"/>
        <path d="M751.336,582.643L751.336,598.769" style="fill:none;stroke:rgb(84,84,84);stroke-width:2px;"/>
        <path d="M748.033,598.769L751.336,607.845L754.639,598.769L748.033,598.769Z" style="fill:rgb(84,84,84);stroke:rgb(84,84,84);stroke-width:2px;stroke-linejoin:miter;"/>
        <g transform="matrix(1.27234,0,0,1,-10.1782,0)">
            <rect x="37.373" y="32.756" width="209.953" height="222.047" style="fill:none;stroke:black;stroke-width:1px;"/>
        </g>
        <path d="M48.716,78.5L48.716,55.593L51.748,55.593L51.748,66.953L63.123,55.593L67.232,55.593L57.623,64.875L67.654,78.5L63.654,78.5L55.498,66.906L51.748,70.562L51.748,78.5L48.716,78.5ZM81.185,73.156L84.091,73.515C83.633,75.213 82.784,76.531 81.545,77.468C80.305,78.406 78.722,78.875 76.795,78.875C74.367,78.875 72.44,78.13 71.013,76.64C69.597,75.14 68.888,73.041 68.888,70.343C68.888,67.552 69.607,65.385 71.045,63.843C72.482,62.302 74.347,61.531 76.638,61.531C78.857,61.531 80.67,62.286 82.076,63.796C83.482,65.307 84.185,67.432 84.185,70.171C84.185,70.338 84.18,70.588 84.17,70.921L71.795,70.921C71.899,72.744 72.414,74.14 73.341,75.109C74.269,76.078 75.425,76.562 76.81,76.562C77.841,76.562 78.722,76.291 79.451,75.75C80.18,75.208 80.758,74.343 81.185,73.156ZM71.951,68.609L81.216,68.609C81.091,67.213 80.737,66.166 80.154,65.468C79.258,64.385 78.097,63.843 76.67,63.843C75.378,63.843 74.289,64.276 73.404,65.14C72.529,66.005 72.045,67.161 71.951,68.609ZM87.498,84.89L87.185,82.25C87.8,82.416 88.336,82.5 88.795,82.5C89.42,82.5 89.92,82.395 90.295,82.187C90.67,81.979 90.977,81.687 91.216,81.312C91.394,81.031 91.68,80.333 92.076,79.218C92.128,79.062 92.211,78.833 92.326,78.531L86.029,61.906L89.06,61.906L92.513,71.515C92.961,72.734 93.362,74.015 93.716,75.359C94.039,74.067 94.425,72.807 94.873,71.578L98.42,61.906L101.232,61.906L94.92,78.781C94.242,80.604 93.716,81.859 93.341,82.546C92.841,83.473 92.269,84.151 91.623,84.578C90.977,85.015 90.206,85.234 89.31,85.234C88.769,85.234 88.164,85.119 87.498,84.89ZM104.404,65.109L104.404,61.906L107.607,61.906L107.607,65.109L104.404,65.109ZM104.404,78.5L104.404,75.296L107.607,75.296L107.607,78.5L104.404,78.5Z" style="fill-rule:nonzero;"/>
        <g transform="matrix(1.28473,0,0,1,-19.5731,0)">
            <path d="M68.743,111.675C68.743,107.227 72.348,103.622 76.795,103.622L207.903,103.622C210.038,103.622 212.087,104.47 213.597,105.981C215.107,107.491 215.955,109.539 215.955,111.675L215.955,143.884C215.955,148.332 212.35,151.937 207.903,151.937L76.795,151.937C72.348,151.937 68.743,148.332 68.743,143.884L68.743,111.675Z" style="fill:rgb(241,194,50);"/>
        </g>
        <g transform="matrix(0.658506,0,0,0.658506,30.7762,-89.5247)">
            <text x="74.49px" y="342.762px" style="font-family:'ArialMT', 'Arial', sans-serif;font-size:36.446px;">Data/output File</text>
        </g>
        <g transform="matrix(1.27526,0,0,1,-19.0695,0)">
            <rect x="69.278" y="176.766" width="146.142" height="55.276" style="fill:rgb(0,138,188);"/>
        </g>
        <path d="M100.979,204.679L103.511,205.32C102.979,207.392 102.026,208.976 100.651,210.07C99.276,211.153 97.594,211.695 95.604,211.695C93.542,211.695 91.865,211.278 90.573,210.445C89.292,209.601 88.313,208.387 87.636,206.804C86.969,205.21 86.636,203.502 86.636,201.679C86.636,199.689 87.016,197.955 87.776,196.476C88.537,194.997 89.615,193.877 91.011,193.116C92.417,192.346 93.959,191.96 95.636,191.96C97.552,191.96 99.162,192.45 100.464,193.429C101.766,194.398 102.672,195.762 103.183,197.523L100.698,198.101C100.25,196.715 99.604,195.705 98.761,195.07C97.927,194.434 96.87,194.116 95.589,194.116C94.12,194.116 92.891,194.471 91.901,195.179C90.922,195.877 90.235,196.82 89.839,198.007C89.443,199.195 89.245,200.413 89.245,201.663C89.245,203.288 89.479,204.71 89.948,205.929C90.417,207.137 91.151,208.043 92.151,208.648C93.151,209.241 94.235,209.538 95.401,209.538C96.808,209.538 98,209.132 98.979,208.32C99.969,207.497 100.636,206.283 100.979,204.679ZM105.448,204.46C105.448,201.898 106.157,200.002 107.573,198.773C108.761,197.741 110.209,197.226 111.917,197.226C113.823,197.226 115.376,197.851 116.573,199.101C117.782,200.34 118.386,202.059 118.386,204.257C118.386,206.038 118.12,207.439 117.589,208.46C117.058,209.481 116.282,210.273 115.261,210.835C114.24,211.398 113.126,211.679 111.917,211.679C109.99,211.679 108.428,211.059 107.23,209.82C106.042,208.58 105.448,206.793 105.448,204.46ZM107.855,204.46C107.855,206.231 108.24,207.559 109.011,208.445C109.782,209.32 110.751,209.757 111.917,209.757C113.084,209.757 114.053,209.314 114.823,208.429C115.594,207.543 115.98,206.195 115.98,204.382C115.98,202.674 115.589,201.377 114.808,200.491C114.037,199.606 113.073,199.163 111.917,199.163C110.751,199.163 109.782,199.606 109.011,200.491C108.24,201.366 107.855,202.689 107.855,204.46ZM130.102,211.366L130.102,209.616C129.227,210.991 127.94,211.679 126.242,211.679C125.138,211.679 124.122,211.377 123.195,210.773C122.279,210.158 121.565,209.309 121.055,208.226C120.544,207.132 120.289,205.882 120.289,204.476C120.289,203.09 120.518,201.835 120.977,200.71C121.445,199.585 122.138,198.726 123.055,198.132C123.971,197.528 124.997,197.226 126.133,197.226C126.966,197.226 127.706,197.403 128.352,197.757C129.008,198.111 129.539,198.57 129.945,199.132L129.945,192.288L132.289,192.288L132.289,211.366L130.102,211.366ZM122.695,204.476C122.695,206.236 123.07,207.559 123.82,208.445C124.57,209.32 125.451,209.757 126.461,209.757C127.482,209.757 128.352,209.34 129.07,208.507C129.789,207.663 130.148,206.382 130.148,204.663C130.148,202.767 129.784,201.377 129.055,200.491C128.326,199.606 127.424,199.163 126.352,199.163C125.32,199.163 124.451,199.59 123.742,200.445C123.044,201.299 122.695,202.642 122.695,204.476ZM145.426,206.913L147.848,207.21C147.463,208.627 146.755,209.726 145.723,210.507C144.692,211.288 143.374,211.679 141.77,211.679C139.749,211.679 138.145,211.059 136.958,209.82C135.77,208.57 135.176,206.82 135.176,204.57C135.176,202.247 135.775,200.445 136.973,199.163C138.171,197.872 139.729,197.226 141.645,197.226C143.489,197.226 144.994,197.856 146.161,199.116C147.338,200.377 147.926,202.148 147.926,204.429C147.926,204.564 147.921,204.773 147.911,205.054L137.598,205.054C137.692,206.575 138.124,207.741 138.895,208.554C139.666,209.356 140.63,209.757 141.786,209.757C142.64,209.757 143.369,209.533 143.973,209.085C144.588,208.627 145.072,207.903 145.426,206.913ZM137.739,203.132L145.458,203.132C145.354,201.965 145.057,201.09 144.567,200.507C143.817,199.611 142.848,199.163 141.661,199.163C140.588,199.163 139.682,199.523 138.942,200.241C138.213,200.96 137.812,201.924 137.739,203.132ZM158.626,211.366L158.626,192.288L171.501,192.288L171.501,194.538L161.157,194.538L161.157,200.445L170.111,200.445L170.111,202.695L161.157,202.695L161.157,211.366L158.626,211.366ZM174.487,194.976L174.487,192.288L176.831,192.288L176.831,194.976L174.487,194.976ZM174.487,211.366L174.487,197.538L176.831,197.538L176.831,211.366L174.487,211.366ZM180.347,211.366L180.347,192.288L182.69,192.288L182.69,211.366L180.347,211.366ZM195.784,206.913L198.206,207.21C197.821,208.627 197.113,209.726 196.081,210.507C195.05,211.288 193.732,211.679 192.128,211.679C190.107,211.679 188.503,211.059 187.316,209.82C186.128,208.57 185.534,206.82 185.534,204.57C185.534,202.247 186.133,200.445 187.331,199.163C188.529,197.872 190.086,197.226 192.003,197.226C193.847,197.226 195.352,197.856 196.519,199.116C197.696,200.377 198.284,202.148 198.284,204.429C198.284,204.564 198.279,204.773 198.269,205.054L187.956,205.054C188.05,206.575 188.482,207.741 189.253,208.554C190.024,209.356 190.988,209.757 192.144,209.757C192.998,209.757 193.727,209.533 194.331,209.085C194.946,208.627 195.43,207.903 195.784,206.913ZM188.097,203.132L195.816,203.132C195.711,201.965 195.415,201.09 194.925,200.507C194.175,199.611 193.206,199.163 192.019,199.163C190.946,199.163 190.04,199.523 189.3,200.241C188.571,200.96 188.17,201.924 188.097,203.132Z" style="fill:rgb(243,243,243);fill-rule:nonzero;"/>
    </g>
</svg>
